M48
;Layer_Color=9474304
;FILE_FORMAT=4:4
METRIC,LZ
;TYPE=PLATED
T1F00S00C0.3556
T2F00S00C0.7112
T3F00S00C0.8000
T4F00S00C0.9000
T5F00S00C1.0800
T6F00S00C1.3000
T7F00S00C1.4000
%
T01
X00690626Y0004953
X006985Y0011684
X0063754Y0013208
X00762Y0010414
X00792988Y0012827
X0092202Y0010668
X0097155
X0098806Y001397
X008763Y0003048
X00594868Y00079248
X0059055Y0014351
X0037338Y0015494
Y0019812
Y0026162
X0035306Y0027432
X0034544Y002921
X00314452Y00260096
X0028194Y0024384
X00400965Y00255931
X0042799Y0031623
X0049911Y0033528
X00498602Y0025527
X00559308Y0026035
X0057658Y0022352
X00588518Y00289306
X0059055Y0041402
X0055626Y0042037
X0057912Y0045212
X0045466
X0071501Y0032639
X0069088Y002667
X00683006Y00210058
X00666242Y00205994
X0063246Y0018923
X00630174Y00170434
X00649224Y00167894
X006985Y0016764
X00712724Y00223012
X0081788Y0024638
X00860044Y0027432
X0098298Y0028321
X0098552Y0031623
X0098044Y002413
X00994664Y00239014
X01000252Y00248412
X009525Y0020066
Y0018288
X01001776Y0043942
X0098171Y0050419
X00986536Y0055626
X0111506Y005334
X01080262Y00485902
X0116205Y0045466
X0117983Y0044704
X01023366Y00427736
X0104267Y0034036
Y0032004
X0102997Y0032512
X0100838Y003048
X010541Y002794
X0106426Y0028702
X0109093Y0028194
X0107696Y0025146
X0105156Y0024384
X0105664Y001778
X0108204Y0016764
X011303Y001778
Y0019558
X01120902Y00202692
X01128522Y00217424
X0113538Y002286
X0112776Y0025146
X0113284Y0026416
X01128776Y00318717
X0109855Y0032131
X01070356Y00339598
T02
X002286Y0016002
X0029718Y00127
X0018034Y0032004
X0036068Y0039624
X0032385Y0047498
X0045339Y0043561
X0049657Y0042545
X0051308Y0044704
X0051689Y003683
X0052832Y0025781
X0049657Y0054229
X0070358Y0034544
X0085979Y0040513
T03
X008001Y0045626
Y0055626
T04
X010668Y0011176
X010922
X011176
X0088392Y0014986
Y0017526
Y0020066
Y0022606
X0088646Y0028194
Y0030734
Y0033274
X0095885Y0039751
X0098425
X0100965
X0103505
X0106045
X0109474
X0112014
X0115824Y003937
X0118364
X0120904
X0122174Y0030226
Y0027686
Y0025146
Y0022606
Y0020066
X0124714
Y0022606
Y0025146
Y0027686
Y0030226
T05
X005459Y0054864
X005709
X005969
T06
X0007747Y0004699
Y0011049
Y0019812
Y0026162
X000762Y0035814
Y0042164
Y0052705
Y0059055
T07
X0021543Y0051936
X0026583
X0031623
X0046883
Y0059436
X0031623
X0026583
X0021543
M30
