G04*
G04 #@! TF.GenerationSoftware,Altium Limited,Altium Designer,23.4.1 (23)*
G04*
G04 Layer_Color=8388736*
%FSLAX44Y44*%
%MOMM*%
G71*
G04*
G04 #@! TF.SameCoordinates,80FF149A-008E-4E34-88B8-DC70BB772429*
G04*
G04*
G04 #@! TF.FilePolarity,Negative*
G04*
G01*
G75*
%ADD18O,1.9032X0.6532*%
%ADD19O,1.9032X0.5532*%
%ADD20R,1.6532X1.2532*%
%ADD21R,1.4232X1.1132*%
%ADD22R,1.3046X1.4562*%
%ADD23R,1.4562X1.3046*%
%ADD24R,1.2532X1.6532*%
%ADD25R,1.2032X3.0532*%
%ADD26R,5.8532X7.1032*%
%ADD27R,1.0032X1.1032*%
G04:AMPARAMS|DCode=28|XSize=0.2525mm|YSize=1.6552mm|CornerRadius=0.1262mm|HoleSize=0mm|Usage=FLASHONLY|Rotation=180.000|XOffset=0mm|YOffset=0mm|HoleType=Round|Shape=RoundedRectangle|*
%AMROUNDEDRECTD28*
21,1,0.2525,1.4028,0,0,180.0*
21,1,0.0000,1.6552,0,0,180.0*
1,1,0.2525,0.0000,0.7014*
1,1,0.2525,0.0000,0.7014*
1,1,0.2525,0.0000,-0.7014*
1,1,0.2525,0.0000,-0.7014*
%
%ADD28ROUNDEDRECTD28*%
G04:AMPARAMS|DCode=29|XSize=1.6552mm|YSize=0.2525mm|CornerRadius=0.1262mm|HoleSize=0mm|Usage=FLASHONLY|Rotation=180.000|XOffset=0mm|YOffset=0mm|HoleType=Round|Shape=RoundedRectangle|*
%AMROUNDEDRECTD29*
21,1,1.6552,0.0000,0,0,180.0*
21,1,1.4028,0.2525,0,0,180.0*
1,1,0.2525,-0.7014,0.0000*
1,1,0.2525,0.7014,0.0000*
1,1,0.2525,0.7014,0.0000*
1,1,0.2525,-0.7014,0.0000*
%
%ADD29ROUNDEDRECTD29*%
%ADD30R,1.6552X0.2525*%
%ADD31R,1.9832X4.4732*%
%ADD32R,1.3032X3.1032*%
%ADD33R,1.1032X1.0032*%
%ADD34R,1.1132X1.4232*%
%ADD35R,1.9032X1.7032*%
%ADD36C,1.7222*%
%ADD37R,2.0032X2.0032*%
%ADD38C,2.0032*%
%ADD39C,1.4032*%
%ADD40C,1.7032*%
%ADD41R,1.7032X1.7032*%
%ADD42R,1.7032X1.7032*%
%ADD43C,2.3032*%
%ADD44C,0.8382*%
%ADD45C,1.4732*%
%ADD46C,0.9144*%
D18*
X629240Y289150D02*
D03*
D19*
Y282650D02*
D03*
Y276150D02*
D03*
Y269650D02*
D03*
X671240Y289150D02*
D03*
Y282650D02*
D03*
Y276150D02*
D03*
Y269650D02*
D03*
D20*
X1009650Y476610D02*
D03*
Y458110D02*
D03*
X1052830Y457750D02*
D03*
Y476250D02*
D03*
X1097280Y476610D02*
D03*
Y458110D02*
D03*
X574040Y242210D02*
D03*
Y260710D02*
D03*
X665480Y168550D02*
D03*
Y187050D02*
D03*
X439420Y223520D02*
D03*
Y205020D02*
D03*
X1005840Y535940D02*
D03*
Y554440D02*
D03*
X896620Y30120D02*
D03*
Y48620D02*
D03*
X810260D02*
D03*
Y30120D02*
D03*
X749300Y281940D02*
D03*
Y300440D02*
D03*
X850900Y48260D02*
D03*
Y29760D02*
D03*
X706120Y47350D02*
D03*
Y28850D02*
D03*
X971550Y121560D02*
D03*
Y140060D02*
D03*
X613410Y188320D02*
D03*
Y169820D02*
D03*
X1013460Y120290D02*
D03*
Y138790D02*
D03*
D21*
X967740Y537050D02*
D03*
Y504350D02*
D03*
D22*
X742068Y195580D02*
D03*
X726052D02*
D03*
X338208Y396240D02*
D03*
X322192D02*
D03*
X680720Y116840D02*
D03*
X664704D02*
D03*
X1102360Y551180D02*
D03*
X1118375D02*
D03*
D23*
X614680Y118992D02*
D03*
Y135008D02*
D03*
X322580Y452120D02*
D03*
Y436104D02*
D03*
X935990Y30975D02*
D03*
Y46990D02*
D03*
X934720Y126612D02*
D03*
Y142628D02*
D03*
X769620Y28822D02*
D03*
Y44838D02*
D03*
X665480Y30092D02*
D03*
Y46108D02*
D03*
X1163320Y535552D02*
D03*
Y551568D02*
D03*
X741680Y116065D02*
D03*
Y132080D02*
D03*
D24*
X339450Y353060D02*
D03*
X320950D02*
D03*
X819510Y264160D02*
D03*
X801010D02*
D03*
X966830Y589280D02*
D03*
X948330D02*
D03*
X610510Y45720D02*
D03*
X629010D02*
D03*
X1039770Y553720D02*
D03*
X1058270D02*
D03*
X1161690Y472440D02*
D03*
X1180190D02*
D03*
D25*
X373320Y127820D02*
D03*
X327720D02*
D03*
D26*
X350520Y59820D02*
D03*
D27*
X400660Y243680D02*
D03*
X381660D02*
D03*
X391160Y223680D02*
D03*
X337160Y238600D02*
D03*
X318160D02*
D03*
X327660Y218600D02*
D03*
D28*
X1094300Y221635D02*
D03*
X1089300D02*
D03*
X1084300D02*
D03*
X1079300D02*
D03*
X1074300D02*
D03*
X1069300D02*
D03*
X1064300D02*
D03*
X1059300D02*
D03*
X1054300D02*
D03*
X1049300D02*
D03*
X1044300D02*
D03*
X1039300D02*
D03*
Y304145D02*
D03*
X1044300D02*
D03*
X1049300D02*
D03*
X1054300D02*
D03*
X1059300D02*
D03*
X1064300D02*
D03*
X1069300D02*
D03*
X1074300D02*
D03*
X1079300D02*
D03*
X1084300D02*
D03*
X1089300D02*
D03*
X1094300D02*
D03*
D29*
X1025545Y235390D02*
D03*
Y240390D02*
D03*
Y245390D02*
D03*
Y250390D02*
D03*
Y255390D02*
D03*
Y260390D02*
D03*
Y265390D02*
D03*
Y270390D02*
D03*
Y275390D02*
D03*
Y280390D02*
D03*
Y285390D02*
D03*
Y290390D02*
D03*
X1108055D02*
D03*
Y285390D02*
D03*
Y280390D02*
D03*
Y275390D02*
D03*
Y270390D02*
D03*
Y265390D02*
D03*
Y260390D02*
D03*
Y255390D02*
D03*
Y250390D02*
D03*
Y245390D02*
D03*
Y240390D02*
D03*
D30*
Y235390D02*
D03*
D31*
X229870Y321020D02*
D03*
X255270D02*
D03*
X229870Y214920D02*
D03*
X255270D02*
D03*
D32*
X510540Y221460D02*
D03*
Y281460D02*
D03*
D33*
X395130Y306070D02*
D03*
X415130Y315570D02*
D03*
Y296570D02*
D03*
X650400Y355600D02*
D03*
X670400Y365100D02*
D03*
Y346100D02*
D03*
D34*
X560230Y609600D02*
D03*
X592930D02*
D03*
D35*
X482600Y452120D02*
D03*
X431800D02*
D03*
Y364490D02*
D03*
X482600D02*
D03*
X599440Y449580D02*
D03*
X548640D02*
D03*
Y361950D02*
D03*
X599440D02*
D03*
D36*
X545900Y548640D02*
D03*
X570900D02*
D03*
X596900D02*
D03*
D37*
X77470Y46990D02*
D03*
X76200Y527050D02*
D03*
Y358140D02*
D03*
X77470Y198120D02*
D03*
D38*
Y110490D02*
D03*
X76200Y590550D02*
D03*
Y421640D02*
D03*
X77470Y261620D02*
D03*
D39*
X800100Y556260D02*
D03*
Y456260D02*
D03*
D40*
X886460Y281940D02*
D03*
Y307340D02*
D03*
X1094740Y397510D02*
D03*
X883920Y200660D02*
D03*
Y175260D02*
D03*
Y149860D02*
D03*
X1209040Y393700D02*
D03*
X1183640D02*
D03*
X1035050Y397510D02*
D03*
X1009650D02*
D03*
X984250D02*
D03*
X958850D02*
D03*
X1117600Y111760D02*
D03*
X1092200D02*
D03*
X1221740Y200660D02*
D03*
X1247140Y226060D02*
D03*
X1221740D02*
D03*
X1247140Y251460D02*
D03*
X1221740D02*
D03*
X1247140Y276860D02*
D03*
X1221740D02*
D03*
X1247140Y302260D02*
D03*
X1221740D02*
D03*
D41*
X886460Y332740D02*
D03*
X883920Y226060D02*
D03*
X1247140Y200660D02*
D03*
D42*
X1120140Y397510D02*
D03*
X1158240Y393700D02*
D03*
X1060450Y397510D02*
D03*
X1066800Y111760D02*
D03*
D43*
X215430Y594360D02*
D03*
Y519360D02*
D03*
X468830Y594360D02*
D03*
X316230D02*
D03*
X265830D02*
D03*
Y519360D02*
D03*
X316230D02*
D03*
X468830D02*
D03*
D44*
X1128522Y217424D02*
D03*
X594868Y79248D02*
D03*
X314452Y260096D02*
D03*
X400965Y255931D02*
D03*
X1120902Y202692D02*
D03*
X690626Y49530D02*
D03*
X588518Y289306D02*
D03*
X559308Y260350D02*
D03*
X986536Y556260D02*
D03*
X666242Y205994D02*
D03*
X683006Y210058D02*
D03*
X712724Y223012D02*
D03*
X649224Y167894D02*
D03*
X630174Y170434D02*
D03*
X994664Y239014D02*
D03*
X1000252Y248412D02*
D03*
X632460Y189230D02*
D03*
X576580Y223520D02*
D03*
X1029970Y325120D02*
D03*
X454660Y452120D02*
D03*
X556260Y420370D02*
D03*
X1098550Y321310D02*
D03*
X1090930Y281940D02*
D03*
X1162050Y454660D02*
D03*
X1179830Y447040D02*
D03*
X1115060Y533400D02*
D03*
X499110Y335280D02*
D03*
X715010Y326390D02*
D03*
X817880Y246380D02*
D03*
X590550Y414020D02*
D03*
X427990Y316230D02*
D03*
X590550Y143510D02*
D03*
X971550Y106680D02*
D03*
X981710Y504190D02*
D03*
X1042670Y320040D02*
D03*
X1064260Y287020D02*
D03*
X1054100Y279400D02*
D03*
X1042670Y340360D02*
D03*
X982980Y283210D02*
D03*
X985520Y316230D02*
D03*
X1008380Y304800D02*
D03*
X637540Y132080D02*
D03*
X698500Y167640D02*
D03*
Y116840D02*
D03*
X762000Y104140D02*
D03*
X952500Y182880D02*
D03*
X922020Y106680D02*
D03*
X373380Y154940D02*
D03*
Y198120D02*
D03*
X281940Y243840D02*
D03*
X353060Y274320D02*
D03*
X373380Y261620D02*
D03*
X345440Y292100D02*
D03*
X579120Y452120D02*
D03*
X952500Y200660D02*
D03*
X1130300Y177800D02*
D03*
X1056640D02*
D03*
X1130300Y195580D02*
D03*
X690880Y266700D02*
D03*
X498602Y255270D02*
D03*
X792988Y128270D02*
D03*
X1070356Y339598D02*
D03*
X1080262Y485902D02*
D03*
X1135380Y228600D02*
D03*
X1127760Y251460D02*
D03*
X1128776Y318717D02*
D03*
X1132840Y264160D02*
D03*
X860044Y274320D02*
D03*
X980440Y241300D02*
D03*
X1051560Y243840D02*
D03*
X1082040Y167640D02*
D03*
X988060Y139700D02*
D03*
X1076960Y251460D02*
D03*
X1023366Y427736D02*
D03*
X1001776Y439420D02*
D03*
D45*
X496570Y542290D02*
D03*
Y425450D02*
D03*
X453390Y435610D02*
D03*
X516890Y368300D02*
D03*
X859790Y405130D02*
D03*
X703580Y345440D02*
D03*
X528320Y257810D02*
D03*
X360680Y396240D02*
D03*
X323850Y474980D02*
D03*
X513080Y447040D02*
D03*
X297180Y127000D02*
D03*
X228600Y160020D02*
D03*
X180340Y320040D02*
D03*
D46*
X876300Y30480D02*
D03*
M02*
