G04*
G04 #@! TF.GenerationSoftware,Altium Limited,Altium Designer,23.4.1 (23)*
G04*
G04 Layer_Physical_Order=2*
G04 Layer_Color=16711680*
%FSLAX44Y44*%
%MOMM*%
G71*
G04*
G04 #@! TF.SameCoordinates,80FF149A-008E-4E34-88B8-DC70BB772429*
G04*
G04*
G04 #@! TF.FilePolarity,Positive*
G04*
G01*
G75*
%ADD17C,0.2032*%
%ADD60C,0.5080*%
%ADD61C,2.0320*%
%ADD63C,1.0160*%
%ADD64C,1.7780*%
%ADD65C,1.5190*%
%ADD66R,1.8000X1.8000*%
%ADD67C,1.8000*%
%ADD68C,1.2000*%
%ADD69C,1.5000*%
%ADD70R,1.5000X1.5000*%
%ADD71R,1.5000X1.5000*%
%ADD72C,2.1000*%
%ADD73C,0.6350*%
%ADD74C,1.2700*%
%ADD75C,0.7112*%
D17*
X1128522Y217424D02*
X1136142Y209804D01*
X1154684D01*
X1120902Y202692D02*
X1154684D01*
X1188720Y236728D01*
X994664Y239014D02*
Y245364D01*
X915924Y332740D02*
X1000183Y248481D01*
X1035050Y330200D02*
Y397510D01*
X1029970Y325120D02*
X1035050Y330200D01*
X1144870Y276190D02*
Y276190D01*
X1159510Y290830D02*
X1226820D01*
X1144870Y276190D02*
X1159510Y290830D01*
X1132840Y264160D02*
X1144870Y276190D01*
X1231900Y287020D02*
X1247140Y302260D01*
X1135380Y243332D02*
X1179068Y287020D01*
X1231900D01*
X1226820Y290830D02*
X1233424Y297434D01*
Y343916D01*
X1098550Y321310D02*
X1098994Y320866D01*
X1100646D01*
X1158240Y378460D01*
Y393700D01*
X1090930Y281940D02*
X1091465D01*
X1128241Y318717D01*
X1128776D01*
X1042670Y320040D02*
Y340360D01*
X1070356Y293116D02*
Y339598D01*
X1064260Y287020D02*
X1070356Y293116D01*
X1054100Y279400D02*
Y353314D01*
X1060450Y359664D01*
X958850Y307340D02*
Y397510D01*
Y307340D02*
X982980Y283210D01*
X984250Y397510D02*
X984885Y396875D01*
Y316865D02*
X985520Y316230D01*
X984885Y316865D02*
Y396875D01*
X1009015D02*
X1009650Y397510D01*
X1009015Y305435D02*
Y396875D01*
X1008380Y304800D02*
X1009015Y305435D01*
X883920Y175260D02*
X944880D01*
X952500Y182880D01*
X883920Y200660D02*
X952500D01*
X1056640Y177800D02*
X1130300D01*
X1177803Y200660D02*
X1221740D01*
X1172723Y195580D02*
X1177803Y200660D01*
X1130300Y195580D02*
X1172723D01*
X1154684Y209804D02*
X1221740Y276860D01*
X1135380Y228600D02*
Y243332D01*
X1121664Y257556D02*
X1127760Y251460D01*
X1121664Y257556D02*
Y292354D01*
X1131570Y302260D01*
X1221740D01*
X1183640Y393700D02*
X1233424Y343916D01*
X1060450Y359664D02*
Y397510D01*
X1034415Y396875D02*
X1035050Y397510D01*
X860044Y274320D02*
X867664Y266700D01*
X955040D01*
X980440Y241300D01*
X886460Y332740D02*
X915924D01*
X932688Y307340D02*
X994664Y245364D01*
X886460Y307340D02*
X932688D01*
X856488Y281940D02*
X886460D01*
X854456Y279908D02*
X856488Y281940D01*
X854456Y267970D02*
Y279908D01*
Y267970D02*
X862838Y259588D01*
X904240D01*
X933704Y230124D01*
X1037844D01*
X1051560Y243840D01*
X1066800Y111760D02*
Y152400D01*
X1082040Y167640D01*
X988060Y139700D02*
X1076960Y228600D01*
Y251460D01*
X1084580Y243840D01*
Y228016D02*
Y243840D01*
X1082040Y225476D02*
X1084580Y228016D01*
X1082040Y210820D02*
Y225476D01*
Y210820D02*
X1104392Y188468D01*
X1234948D01*
X1247140Y200660D01*
X1188720Y236728D02*
X1250696D01*
X1257046Y243078D01*
Y266954D01*
X1247140Y276860D02*
X1257046Y266954D01*
D60*
X1085850Y504190D02*
X1115060Y533400D01*
X981710Y504190D02*
X1085850D01*
X594868Y79248D02*
X636791Y121171D01*
X641871D01*
X683551Y162851D01*
X314452Y260096D02*
X371512D01*
X373036Y261620D01*
X373380D01*
X400965Y255931D02*
X497598D01*
X498258Y255270D01*
X77470Y110490D02*
X138430Y49530D01*
X690626D01*
Y96520D02*
X722376Y128270D01*
X690626Y49530D02*
Y96520D01*
X498258Y255270D02*
X498602D01*
X588518Y289306D02*
X665999Y211825D01*
X559435Y260350D02*
X588391Y289306D01*
X588518D01*
X559308Y260350D02*
X559435D01*
X665999Y206237D02*
Y211825D01*
Y206237D02*
X666242Y205994D01*
X800100Y556260D02*
X986536D01*
X637540Y255524D02*
X683006Y210058D01*
X637540Y255524D02*
Y392430D01*
X683006Y186555D02*
Y210058D01*
Y186555D02*
X683551Y186010D01*
Y162851D02*
Y186010D01*
X712724Y199599D02*
Y223012D01*
Y199599D02*
X713740Y198583D01*
Y175260D02*
Y198583D01*
Y175260D02*
X721360Y167640D01*
X637540Y132424D02*
X649224Y144108D01*
Y167894D01*
X615188Y173228D02*
X619396D01*
X621947Y170677D02*
X629931D01*
X619396Y173228D02*
X621947Y170677D01*
X629931D02*
X630174Y170434D01*
X611897Y169937D02*
X615188Y173228D01*
X611897Y164857D02*
Y169937D01*
X590550Y143510D02*
X611897Y164857D01*
X576580Y223520D02*
X598170D01*
X632460Y189230D01*
X469306Y360247D02*
X496410Y387350D01*
X585470D02*
X684022Y485902D01*
X496410Y387350D02*
X585470D01*
X345440Y406400D02*
X391160Y452120D01*
X454660D01*
X513080Y447040D02*
X523240Y436880D01*
X567690D02*
X590550Y414020D01*
X523240Y436880D02*
X567690D01*
X1158240Y393700D02*
Y450506D01*
X1162050Y454316D01*
Y454660D01*
X1183640Y393700D02*
Y442886D01*
X1179830Y446696D02*
X1183640Y442886D01*
X1179830Y446696D02*
Y447040D01*
X498602Y255270D02*
Y334428D01*
X499110Y334936D01*
Y335280D01*
X795020Y246380D02*
X817880D01*
X715010Y326390D02*
X795020Y246380D01*
X427990Y316230D02*
X469306Y357547D01*
Y360247D01*
X922020Y106680D02*
X971550D01*
X637540Y132080D02*
Y132424D01*
X698500Y116840D02*
Y167640D01*
X922020Y25400D02*
Y106680D01*
X792480Y18216D02*
Y73660D01*
Y18216D02*
X795456Y15240D01*
X911860D01*
X922020Y25400D01*
X762000Y104140D02*
X792480Y73660D01*
X863600Y119816D02*
X876736Y106680D01*
X921676D01*
X863600Y119816D02*
Y205740D01*
X883920Y226060D01*
X373380Y154940D02*
Y198120D01*
X312420Y274320D02*
X353060D01*
X281940Y243840D02*
X312420Y274320D01*
X345440Y292100D02*
Y406400D01*
X596900Y469900D02*
Y548640D01*
X579120Y452120D02*
X596900Y469900D01*
X684022Y485902D02*
X1080262D01*
X721360Y167640D02*
X772160D01*
X876300Y30480D02*
Y63500D01*
X772160Y167640D02*
X876300Y63500D01*
X637540Y392430D02*
X653796Y408686D01*
X650240Y307340D02*
X690880Y266700D01*
X650240Y307340D02*
Y361188D01*
X722376Y128270D02*
X792988D01*
X650240Y361188D02*
X676402Y387350D01*
X802640D01*
X843026Y427736D01*
X1023366D01*
X653796Y408686D02*
X722884D01*
X753618Y439420D01*
X1001776D01*
D61*
X492760Y429260D02*
X496570Y425450D01*
X492760Y538480D02*
X496570Y542290D01*
X492760Y429260D02*
Y538480D01*
D63*
X468830Y519360D02*
Y546300D01*
X525580Y568960D02*
X545900Y548640D01*
X468830Y546300D02*
X491490Y568960D01*
X525580D01*
X537210Y401320D02*
X556260Y420370D01*
X366447Y401320D02*
X537210D01*
X360680Y396240D02*
X361367D01*
X366447Y401320D01*
X468830Y442286D02*
Y519360D01*
X462640Y436096D02*
X468830Y442286D01*
X453876Y436096D02*
X462640D01*
X453390Y435610D02*
X453876Y436096D01*
X368230Y519360D02*
X468830D01*
X516890Y269927D02*
Y368300D01*
Y269927D02*
X528320Y258497D01*
Y257810D02*
Y258497D01*
X703580Y345440D02*
X800100D01*
X859790Y405130D01*
X323850Y474980D02*
X368230Y519360D01*
X569938Y547678D02*
X570900Y548640D01*
X569938Y541998D02*
Y547678D01*
X513080Y485140D02*
X569938Y541998D01*
X513080Y447040D02*
Y485140D01*
X261620Y127000D02*
X297180D01*
X228600Y160020D02*
X261620Y127000D01*
D64*
X77470Y198120D02*
X142240D01*
X180340Y236220D01*
Y320040D01*
D65*
X545900Y548640D02*
D03*
X570900D02*
D03*
X596900D02*
D03*
D66*
X77470Y46990D02*
D03*
X76200Y527050D02*
D03*
Y358140D02*
D03*
X77470Y198120D02*
D03*
D67*
Y110490D02*
D03*
X76200Y590550D02*
D03*
Y421640D02*
D03*
X77470Y261620D02*
D03*
D68*
X800100Y556260D02*
D03*
Y456260D02*
D03*
D69*
X886460Y281940D02*
D03*
Y307340D02*
D03*
X1094740Y397510D02*
D03*
X883920Y200660D02*
D03*
Y175260D02*
D03*
Y149860D02*
D03*
X1209040Y393700D02*
D03*
X1183640D02*
D03*
X1035050Y397510D02*
D03*
X1009650D02*
D03*
X984250D02*
D03*
X958850D02*
D03*
X1117600Y111760D02*
D03*
X1092200D02*
D03*
X1221740Y200660D02*
D03*
X1247140Y226060D02*
D03*
X1221740D02*
D03*
X1247140Y251460D02*
D03*
X1221740D02*
D03*
X1247140Y276860D02*
D03*
X1221740D02*
D03*
X1247140Y302260D02*
D03*
X1221740D02*
D03*
D70*
X886460Y332740D02*
D03*
X883920Y226060D02*
D03*
X1247140Y200660D02*
D03*
D71*
X1120140Y397510D02*
D03*
X1158240Y393700D02*
D03*
X1060450Y397510D02*
D03*
X1066800Y111760D02*
D03*
D72*
X215430Y594360D02*
D03*
Y519360D02*
D03*
X468830Y594360D02*
D03*
X316230D02*
D03*
X265830D02*
D03*
Y519360D02*
D03*
X316230D02*
D03*
X468830D02*
D03*
D73*
X1128522Y217424D02*
D03*
X594868Y79248D02*
D03*
X314452Y260096D02*
D03*
X400965Y255931D02*
D03*
X1120902Y202692D02*
D03*
X690626Y49530D02*
D03*
X588518Y289306D02*
D03*
X559308Y260350D02*
D03*
X986536Y556260D02*
D03*
X666242Y205994D02*
D03*
X683006Y210058D02*
D03*
X712724Y223012D02*
D03*
X649224Y167894D02*
D03*
X630174Y170434D02*
D03*
X994664Y239014D02*
D03*
X1000252Y248412D02*
D03*
X632460Y189230D02*
D03*
X576580Y223520D02*
D03*
X1029970Y325120D02*
D03*
X454660Y452120D02*
D03*
X556260Y420370D02*
D03*
X1098550Y321310D02*
D03*
X1090930Y281940D02*
D03*
X1162050Y454660D02*
D03*
X1179830Y447040D02*
D03*
X1115060Y533400D02*
D03*
X499110Y335280D02*
D03*
X715010Y326390D02*
D03*
X817880Y246380D02*
D03*
X590550Y414020D02*
D03*
X427990Y316230D02*
D03*
X590550Y143510D02*
D03*
X971550Y106680D02*
D03*
X981710Y504190D02*
D03*
X1042670Y320040D02*
D03*
X1064260Y287020D02*
D03*
X1054100Y279400D02*
D03*
X1042670Y340360D02*
D03*
X982980Y283210D02*
D03*
X985520Y316230D02*
D03*
X1008380Y304800D02*
D03*
X637540Y132080D02*
D03*
X698500Y167640D02*
D03*
Y116840D02*
D03*
X762000Y104140D02*
D03*
X952500Y182880D02*
D03*
X922020Y106680D02*
D03*
X373380Y154940D02*
D03*
Y198120D02*
D03*
X281940Y243840D02*
D03*
X353060Y274320D02*
D03*
X373380Y261620D02*
D03*
X345440Y292100D02*
D03*
X579120Y452120D02*
D03*
X952500Y200660D02*
D03*
X1130300Y177800D02*
D03*
X1056640D02*
D03*
X1130300Y195580D02*
D03*
X690880Y266700D02*
D03*
X498602Y255270D02*
D03*
X792988Y128270D02*
D03*
X1070356Y339598D02*
D03*
X1080262Y485902D02*
D03*
X1135380Y228600D02*
D03*
X1127760Y251460D02*
D03*
X1128776Y318717D02*
D03*
X1132840Y264160D02*
D03*
X860044Y274320D02*
D03*
X980440Y241300D02*
D03*
X1051560Y243840D02*
D03*
X1082040Y167640D02*
D03*
X988060Y139700D02*
D03*
X1076960Y251460D02*
D03*
X1023366Y427736D02*
D03*
X1001776Y439420D02*
D03*
D74*
X496570Y542290D02*
D03*
Y425450D02*
D03*
X453390Y435610D02*
D03*
X516890Y368300D02*
D03*
X859790Y405130D02*
D03*
X703580Y345440D02*
D03*
X528320Y257810D02*
D03*
X360680Y396240D02*
D03*
X323850Y474980D02*
D03*
X513080Y447040D02*
D03*
X297180Y127000D02*
D03*
X228600Y160020D02*
D03*
X180340Y320040D02*
D03*
D75*
X876300Y30480D02*
D03*
M02*
