G04*
G04 #@! TF.GenerationSoftware,Altium Limited,Altium Designer,23.4.1 (23)*
G04*
G04 Layer_Color=65535*
%FSLAX44Y44*%
%MOMM*%
G71*
G04*
G04 #@! TF.SameCoordinates,80FF149A-008E-4E34-88B8-DC70BB772429*
G04*
G04*
G04 #@! TF.FilePolarity,Positive*
G04*
G01*
G75*
%ADD10C,0.2500*%
%ADD11C,0.3000*%
%ADD12C,0.5000*%
%ADD13C,0.2000*%
%ADD14C,0.4000*%
%ADD15C,0.1000*%
%ADD16C,0.2540*%
%ADD17C,0.2032*%
D10*
X672490Y261900D02*
G03*
X672490Y261900I-1250J0D01*
G01*
X980590Y537050D02*
G03*
X980590Y537050I-1250J0D01*
G01*
X164220Y46990D02*
G03*
X164220Y46990I-1250J0D01*
G01*
X385070Y127820D02*
G03*
X385070Y127820I-1250J0D01*
G01*
X411410Y243680D02*
G03*
X411410Y243680I-1250J0D01*
G01*
X347910Y238600D02*
G03*
X347910Y238600I-1250J0D01*
G01*
X1109305Y228290D02*
G03*
X1109305Y228290I-1250J0D01*
G01*
X162950Y527050D02*
G03*
X162950Y527050I-1250J0D01*
G01*
Y358140D02*
G03*
X162950Y358140I-1250J0D01*
G01*
X164220Y198120D02*
G03*
X164220Y198120I-1250J0D01*
G01*
X416380Y287070D02*
G03*
X416380Y287070I-1250J0D01*
G01*
X594180Y598000D02*
G03*
X594180Y598000I-1250J0D01*
G01*
X671650Y336600D02*
G03*
X671650Y336600I-1250J0D01*
G01*
D11*
X632900Y548640D02*
G03*
X631900Y548640I-500J0D01*
G01*
D02*
G03*
X632900Y548640I500J0D01*
G01*
D12*
X1088300Y243890D02*
G03*
X1088300Y243890I-2500J0D01*
G01*
D13*
X930100Y506260D02*
G03*
X930100Y506260I-130000J0D01*
G01*
X227570Y182970D02*
G03*
X225570Y182970I-1000J0D01*
G01*
D02*
G03*
X227570Y182970I1000J0D01*
G01*
X641740Y294900D02*
X658740D01*
X641740Y263900D02*
X658740D01*
X641740D02*
Y294900D01*
X658740Y263900D02*
Y294900D01*
X1015900Y466360D02*
Y468360D01*
X1003400Y466360D02*
Y468360D01*
X1046580Y466000D02*
Y468000D01*
X1059080Y466000D02*
Y468000D01*
X1103530Y466360D02*
Y468360D01*
X1091030Y466360D02*
Y468360D01*
X567790Y250460D02*
Y252460D01*
X580290Y250460D02*
Y252460D01*
X959490Y528500D02*
X975990D01*
X959490Y512900D02*
Y528500D01*
Y512900D02*
X975990D01*
Y528500D01*
X659231Y176800D02*
Y178800D01*
X671730Y176800D02*
Y178800D01*
X719529Y206861D02*
X748591D01*
X719529Y184299D02*
X748591D01*
X625961Y112469D02*
Y141531D01*
X603399Y112469D02*
Y141531D01*
X311299Y429581D02*
Y458643D01*
X333861Y429581D02*
Y458643D01*
X315669Y407521D02*
X344731D01*
X315669Y384959D02*
X344731D01*
X329200Y346810D02*
X331200D01*
X329200Y359310D02*
X331200D01*
X31470Y15240D02*
X156470D01*
X31472Y15242D02*
Y142238D01*
X156470D01*
Y15240D02*
Y142238D01*
X384020Y98320D02*
Y104320D01*
X317020D02*
X384020D01*
X317020Y98320D02*
Y104320D01*
X445670Y213270D02*
Y215270D01*
X433170Y213270D02*
Y215270D01*
X405760Y227180D02*
Y235330D01*
X399160Y227180D02*
X405760D01*
X376560D02*
Y235330D01*
Y227180D02*
X383160D01*
X342260Y222100D02*
Y230250D01*
X335660Y222100D02*
X342260D01*
X313060D02*
Y230250D01*
Y222100D02*
X319660D01*
X1094300Y235390D02*
Y290390D01*
X1039300D02*
X1094300D01*
X1039300Y235390D02*
Y290390D01*
Y235390D02*
X1094300D01*
X800100Y646760D02*
Y656920D01*
X795020Y651840D02*
X805180D01*
X873760Y345440D02*
X899160D01*
Y269240D02*
Y345440D01*
X873760Y269240D02*
X899160D01*
X873760D02*
Y345440D01*
X1082040Y384810D02*
Y410210D01*
X1132840D01*
Y384810D02*
Y410210D01*
X1082040Y384810D02*
X1132840D01*
X871220Y137160D02*
X896620D01*
X871220D02*
Y238760D01*
X896620Y137160D02*
Y238760D01*
X871220D02*
X896620D01*
X1145540Y381000D02*
Y406400D01*
X1221740D01*
Y381000D02*
Y406400D01*
X1145540Y381000D02*
X1221740D01*
X946150Y384810D02*
Y410210D01*
X1073150D01*
X946150Y384810D02*
X1073150D01*
Y410210D01*
X1054100Y99060D02*
Y124460D01*
X1130300D01*
Y99060D02*
Y124460D01*
X1054100Y99060D02*
X1130300D01*
X1209040Y314960D02*
X1259840D01*
X1209040Y187960D02*
X1259840D01*
X1209040D02*
Y314960D01*
X1259840Y187960D02*
Y314960D01*
X155200Y495300D02*
Y622298D01*
X30202D02*
X155200D01*
X30202Y495302D02*
Y622298D01*
X30200Y495300D02*
X155200D01*
Y326390D02*
Y453388D01*
X30202D02*
X155200D01*
X30202Y326392D02*
Y453388D01*
X30200Y326390D02*
X155200D01*
X156470Y166370D02*
Y293368D01*
X31472D02*
X156470D01*
X31472Y166372D02*
Y293368D01*
X31470Y166370D02*
X156470D01*
X809260Y257910D02*
X811260D01*
X809260Y270410D02*
X811260D01*
X202330Y493360D02*
X492330D01*
X202330D02*
Y620360D01*
X492330D01*
Y493360D02*
Y620360D01*
X956580Y583030D02*
X958580D01*
X956580Y595530D02*
X958580D01*
X999590Y544190D02*
Y546190D01*
X1012090Y544190D02*
Y546190D01*
X658181Y128121D02*
X687243D01*
X658181Y105559D02*
X687243D01*
X947271Y24452D02*
Y53513D01*
X924709Y24452D02*
Y53513D01*
X946001Y120089D02*
Y149151D01*
X923439Y120089D02*
Y149151D01*
X890370Y38370D02*
Y40370D01*
X902870Y38370D02*
Y40370D01*
X816510Y38370D02*
Y40370D01*
X804010Y38370D02*
Y40370D01*
X1095837Y539899D02*
X1124898D01*
X1095837Y562461D02*
X1124898D01*
X780901Y22299D02*
Y51361D01*
X758339Y22299D02*
Y51361D01*
X743050Y290190D02*
Y292190D01*
X755550Y290190D02*
Y292190D01*
X857150Y38010D02*
Y40010D01*
X844650Y38010D02*
Y40010D01*
X618760Y51970D02*
X620760D01*
X618760Y39470D02*
X620760D01*
X676761Y23569D02*
Y52631D01*
X654199Y23569D02*
Y52631D01*
X712370Y37100D02*
Y39100D01*
X699870Y37100D02*
Y39100D01*
X965300Y129810D02*
Y131810D01*
X977800Y129810D02*
Y131810D01*
X1048020Y559970D02*
X1050020D01*
X1048020Y547470D02*
X1050020D01*
X1174601Y529029D02*
Y558091D01*
X1152039Y529029D02*
Y558091D01*
X752961Y109542D02*
Y138603D01*
X730399Y109542D02*
Y138603D01*
X619660Y178070D02*
Y180070D01*
X607160Y178070D02*
Y180070D01*
X1007210Y128540D02*
Y130540D01*
X1019710Y128540D02*
Y130540D01*
X1169940Y478690D02*
X1171940D01*
X1169940Y466190D02*
X1171940D01*
X398630Y314070D02*
Y320670D01*
X406780D01*
X398630Y291470D02*
Y298070D01*
Y291470D02*
X406780D01*
X568780Y601350D02*
X584380D01*
X568780D02*
Y617850D01*
X584380D01*
Y601350D02*
Y617850D01*
X653900Y363600D02*
Y370200D01*
X662050D01*
X653900Y341000D02*
Y347600D01*
Y341000D02*
X662050D01*
D14*
X505559Y599320D02*
G03*
X505559Y599320I-1259J0D01*
G01*
D15*
X625400Y492640D02*
Y585640D01*
X516400D02*
X625400D01*
X516400Y492640D02*
Y585640D01*
Y492640D02*
X625400D01*
X211070Y211070D02*
Y324870D01*
X274070Y217170D02*
Y324870D01*
D16*
X468040Y208870D02*
Y273730D01*
X468130Y208960D02*
X553040D01*
Y273640D01*
X532720Y293960D02*
X553040Y273640D01*
X510540Y293960D02*
X532720D01*
X488270D02*
X510540D01*
X468040Y273730D02*
X488270Y293960D01*
X462200Y364670D02*
X505477D01*
X440700Y451680D02*
X473700D01*
X505477Y364670D02*
Y407670D01*
Y412947D01*
X408923D02*
Y450833D01*
X473700Y451680D02*
X505477D01*
Y412947D02*
Y451680D01*
X409770D02*
X440700D01*
X408923Y450833D02*
X409770Y451680D01*
X457200Y364670D02*
X462200D01*
X424742D02*
X436381D01*
X408923D02*
Y412947D01*
Y364670D02*
X424742D01*
X436381D02*
X457200D01*
X579040Y362130D02*
X622317D01*
X557540Y449140D02*
X590540D01*
X622317Y362130D02*
Y405130D01*
Y410407D01*
X525763D02*
Y448293D01*
X590540Y449140D02*
X622317D01*
Y410407D02*
Y449140D01*
X526610D02*
X557540D01*
X525763Y448293D02*
X526610Y449140D01*
X574040Y362130D02*
X579040D01*
X541582D02*
X553221D01*
X525763D02*
Y410407D01*
Y362130D02*
X541582D01*
X553221D02*
X574040D01*
X477520Y432814D02*
X487677D01*
X482598Y437893D02*
Y427736D01*
X1036320Y641599D02*
X1046477D01*
X1041398D01*
Y626364D01*
X1051555Y641599D02*
Y626364D01*
Y633982D01*
X1054094Y636521D01*
X1059173D01*
X1061712Y633982D01*
Y626364D01*
X1069329D02*
X1074408D01*
X1076947Y628903D01*
Y633982D01*
X1074408Y636521D01*
X1069329D01*
X1066790Y633982D01*
Y628903D01*
X1069329Y626364D01*
X1082025D02*
Y636521D01*
X1084564D01*
X1087104Y633982D01*
Y626364D01*
Y633982D01*
X1089643Y636521D01*
X1092182Y633982D01*
Y626364D01*
X1099799Y636521D02*
X1104878D01*
X1107417Y633982D01*
Y626364D01*
X1099799D01*
X1097260Y628903D01*
X1099799Y631442D01*
X1107417D01*
X1112495Y626364D02*
X1120113D01*
X1122652Y628903D01*
X1120113Y631442D01*
X1115034D01*
X1112495Y633982D01*
X1115034Y636521D01*
X1122652D01*
X1153122Y641599D02*
X1142965D01*
Y633982D01*
X1148044D01*
X1142965D01*
Y626364D01*
X1160740D02*
X1165818D01*
X1168357Y628903D01*
Y633982D01*
X1165818Y636521D01*
X1160740D01*
X1158201Y633982D01*
Y628903D01*
X1160740Y626364D01*
X1173436D02*
Y641599D01*
Y631442D02*
X1181053Y636521D01*
X1173436Y631442D02*
X1181053Y626364D01*
X1188671D02*
Y641599D01*
Y631442D02*
X1196288Y636521D01*
X1188671Y631442D02*
X1196288Y626364D01*
X1211523D02*
X1206445D01*
X1203906Y628903D01*
Y633982D01*
X1206445Y636521D01*
X1211523D01*
X1214062Y633982D01*
Y631442D01*
X1203906D01*
X1219141Y626364D02*
Y636521D01*
X1221680D01*
X1224219Y633982D01*
Y626364D01*
Y633982D01*
X1226758Y636521D01*
X1229298Y633982D01*
Y626364D01*
X1236915Y636521D02*
X1241993D01*
X1244533Y633982D01*
Y626364D01*
X1236915D01*
X1234376Y628903D01*
X1236915Y631442D01*
X1244533D01*
X426720Y435610D02*
X436877D01*
X477520Y377444D02*
X480059Y379983D01*
X485137D01*
X487677Y382522D01*
X426720Y379222D02*
X429259Y381761D01*
X434338D01*
X436877Y384300D01*
X596138Y433576D02*
X606295D01*
X601216Y438655D02*
Y428498D01*
X543560Y433070D02*
X553717D01*
X594360Y377444D02*
X596899Y379983D01*
X601978D01*
X604517Y382522D01*
X544068Y376682D02*
X546607Y379221D01*
X551685D01*
X554225Y381760D01*
X32766Y317495D02*
Y302260D01*
Y307338D01*
X42923Y317495D01*
X35305Y309877D01*
X42923Y302260D01*
X48001Y314956D02*
X50540Y317495D01*
X55619D01*
X58158Y314956D01*
Y312417D01*
X55619Y309877D01*
X58158Y307338D01*
Y304799D01*
X55619Y302260D01*
X50540D01*
X48001Y304799D01*
Y307338D01*
X50540Y309877D01*
X48001Y312417D01*
Y314956D01*
X50540Y309877D02*
X55619D01*
X33024Y161796D02*
Y146560D01*
Y151639D01*
X43181Y161796D01*
X35563Y154178D01*
X43181Y146560D01*
X48259Y159256D02*
X50798Y161796D01*
X55877D01*
X58416Y159256D01*
Y156717D01*
X55877Y154178D01*
X53337D01*
X55877D01*
X58416Y151639D01*
Y149100D01*
X55877Y146560D01*
X50798D01*
X48259Y149100D01*
X31496Y477515D02*
Y462280D01*
Y467358D01*
X41653Y477515D01*
X34035Y469897D01*
X41653Y462280D01*
X56888D02*
X46731D01*
X56888Y472437D01*
Y474976D01*
X54349Y477515D01*
X49270D01*
X46731Y474976D01*
X31496Y646425D02*
Y631190D01*
Y636268D01*
X41653Y646425D01*
X34035Y638807D01*
X41653Y631190D01*
X46731D02*
X51809D01*
X49270D01*
Y646425D01*
X46731Y643886D01*
X620522Y320543D02*
Y307847D01*
X623061Y305308D01*
X628139D01*
X630679Y307847D01*
Y320543D01*
X635757Y305308D02*
X640835D01*
X638296D01*
Y320543D01*
X635757Y318004D01*
X381766Y281175D02*
X391923D01*
X386844D01*
Y265940D01*
X407158Y281175D02*
X402080Y278636D01*
X397001Y273558D01*
Y268480D01*
X399540Y265940D01*
X404619D01*
X407158Y268480D01*
Y271019D01*
X404619Y273558D01*
X397001D01*
X391922Y344673D02*
X402079D01*
X397000D01*
Y329438D01*
X414775D02*
Y344673D01*
X407157Y337056D01*
X417314D01*
X321314Y266698D02*
X331471D01*
X326393D01*
Y251462D01*
X346706D02*
X336549D01*
X346706Y261619D01*
Y264158D01*
X344167Y266698D01*
X339088D01*
X336549Y264158D01*
X647192Y394203D02*
X657349D01*
X652270D01*
Y378968D01*
X662427D02*
X667505D01*
X664966D01*
Y394203D01*
X662427Y391664D01*
X203454Y628904D02*
Y644139D01*
X211071D01*
X213611Y641600D01*
Y636521D01*
X211071Y633982D01*
X203454D01*
X208532D02*
X213611Y628904D01*
X228846Y644139D02*
X218689D01*
Y628904D01*
X228846D01*
X218689Y636521D02*
X223767D01*
X233924Y628904D02*
X239002D01*
X236463D01*
Y644139D01*
X233924Y641600D01*
X1005840Y154432D02*
Y169667D01*
X1013457D01*
X1015997Y167128D01*
Y162050D01*
X1013457Y159510D01*
X1005840D01*
X1010918D02*
X1015997Y154432D01*
X1031232D02*
X1021075D01*
X1031232Y164589D01*
Y167128D01*
X1028693Y169667D01*
X1023614D01*
X1021075Y167128D01*
X1046467Y154432D02*
X1036310D01*
X1046467Y164589D01*
Y167128D01*
X1043928Y169667D01*
X1038849D01*
X1036310Y167128D01*
X963930Y155702D02*
Y170937D01*
X971547D01*
X974087Y168398D01*
Y163319D01*
X971547Y160780D01*
X963930D01*
X969008D02*
X974087Y155702D01*
X989322D02*
X979165D01*
X989322Y165859D01*
Y168398D01*
X986783Y170937D01*
X981704D01*
X979165Y168398D01*
X994400Y155702D02*
X999479D01*
X996939D01*
Y170937D01*
X994400Y168398D01*
X269501Y358651D02*
Y373885D01*
X277118D01*
X279657Y371346D01*
Y366268D01*
X277118Y363729D01*
X269501D01*
X274579D02*
X279657Y358651D01*
X294892D02*
X284736D01*
X294892Y368807D01*
Y371346D01*
X292353Y373885D01*
X287275D01*
X284736Y371346D01*
X299971D02*
X302510Y373885D01*
X307588D01*
X310127Y371346D01*
Y361190D01*
X307588Y358651D01*
X302510D01*
X299971Y361190D01*
Y371346D01*
X1089666Y492762D02*
Y507998D01*
X1097284D01*
X1099823Y505458D01*
Y500380D01*
X1097284Y497841D01*
X1089666D01*
X1094744D02*
X1099823Y492762D01*
X1104901D02*
X1109980D01*
X1107440D01*
Y507998D01*
X1104901Y505458D01*
X1117597Y495302D02*
X1120136Y492762D01*
X1125215D01*
X1127754Y495302D01*
Y505458D01*
X1125215Y507998D01*
X1120136D01*
X1117597Y505458D01*
Y502919D01*
X1120136Y500380D01*
X1127754D01*
X422916Y238762D02*
Y253997D01*
X430534D01*
X433073Y251458D01*
Y246380D01*
X430534Y243841D01*
X422916D01*
X427994D02*
X433073Y238762D01*
X438151D02*
X443230D01*
X440690D01*
Y253997D01*
X438151Y251458D01*
X450847Y253997D02*
X461004D01*
Y251458D01*
X450847Y241302D01*
Y238762D01*
X1156208Y490220D02*
Y505455D01*
X1163826D01*
X1166365Y502916D01*
Y497837D01*
X1163826Y495298D01*
X1156208D01*
X1161286D02*
X1166365Y490220D01*
X1171443D02*
X1176521D01*
X1173982D01*
Y505455D01*
X1171443Y502916D01*
X1194296Y505455D02*
X1189217Y502916D01*
X1184139Y497837D01*
Y492759D01*
X1186678Y490220D01*
X1191757D01*
X1194296Y492759D01*
Y495298D01*
X1191757Y497837D01*
X1184139D01*
X605028Y63500D02*
Y78735D01*
X612645D01*
X615185Y76196D01*
Y71118D01*
X612645Y68578D01*
X605028D01*
X610106D02*
X615185Y63500D01*
X620263D02*
X625341D01*
X622802D01*
Y78735D01*
X620263Y76196D01*
X643116Y78735D02*
X632959D01*
Y71118D01*
X638037Y73657D01*
X640576D01*
X643116Y71118D01*
Y66039D01*
X640576Y63500D01*
X635498D01*
X632959Y66039D01*
X1045216Y492762D02*
Y507998D01*
X1052834D01*
X1055373Y505458D01*
Y500380D01*
X1052834Y497841D01*
X1045216D01*
X1050294D02*
X1055373Y492762D01*
X1060451D02*
X1065530D01*
X1062990D01*
Y507998D01*
X1060451Y505458D01*
X1080765Y492762D02*
Y507998D01*
X1073147Y500380D01*
X1083304D01*
X843280Y63754D02*
Y78989D01*
X850898D01*
X853437Y76450D01*
Y71371D01*
X850898Y68832D01*
X843280D01*
X848358D02*
X853437Y63754D01*
X858515D02*
X863593D01*
X861054D01*
Y78989D01*
X858515Y76450D01*
X871211D02*
X873750Y78989D01*
X878829D01*
X881368Y76450D01*
Y73911D01*
X878829Y71371D01*
X876289D01*
X878829D01*
X881368Y68832D01*
Y66293D01*
X878829Y63754D01*
X873750D01*
X871211Y66293D01*
X1000766Y493270D02*
Y508506D01*
X1008384D01*
X1010923Y505966D01*
Y500888D01*
X1008384Y498349D01*
X1000766D01*
X1005844D02*
X1010923Y493270D01*
X1016001D02*
X1021080D01*
X1018540D01*
Y508506D01*
X1016001Y505966D01*
X1038854Y493270D02*
X1028697D01*
X1038854Y503427D01*
Y505966D01*
X1036315Y508506D01*
X1031236D01*
X1028697Y505966D01*
X1034288Y571500D02*
Y586735D01*
X1041906D01*
X1044445Y584196D01*
Y579118D01*
X1041906Y576578D01*
X1034288D01*
X1039366D02*
X1044445Y571500D01*
X1049523D02*
X1054601D01*
X1052062D01*
Y586735D01*
X1049523Y584196D01*
X1062219Y571500D02*
X1067297D01*
X1064758D01*
Y586735D01*
X1062219Y584196D01*
X795528Y281940D02*
Y297175D01*
X803146D01*
X805685Y294636D01*
Y289557D01*
X803146Y287018D01*
X795528D01*
X800606D02*
X805685Y281940D01*
X810763D02*
X815841D01*
X813302D01*
Y297175D01*
X810763Y294636D01*
X823459D02*
X825998Y297175D01*
X831077D01*
X833616Y294636D01*
Y284479D01*
X831077Y281940D01*
X825998D01*
X823459Y284479D01*
Y294636D01*
X802640Y64262D02*
Y79497D01*
X810257D01*
X812797Y76958D01*
Y71880D01*
X810257Y69340D01*
X802640D01*
X807718D02*
X812797Y64262D01*
X817875Y66801D02*
X820414Y64262D01*
X825493D01*
X828032Y66801D01*
Y76958D01*
X825493Y79497D01*
X820414D01*
X817875Y76958D01*
Y74419D01*
X820414Y71880D01*
X828032D01*
X679708Y184914D02*
Y200149D01*
X687326D01*
X689865Y197610D01*
Y192532D01*
X687326Y189993D01*
X679708D01*
X684787D02*
X689865Y184914D01*
X694943Y197610D02*
X697482Y200149D01*
X702561D01*
X705100Y197610D01*
Y195071D01*
X702561Y192532D01*
X705100Y189993D01*
Y187454D01*
X702561Y184914D01*
X697482D01*
X694943Y187454D01*
Y189993D01*
X697482Y192532D01*
X694943Y195071D01*
Y197610D01*
X697482Y192532D02*
X702561D01*
X741680Y315976D02*
Y331211D01*
X749297D01*
X751837Y328672D01*
Y323593D01*
X749297Y321054D01*
X741680D01*
X746758D02*
X751837Y315976D01*
X756915Y331211D02*
X767072D01*
Y328672D01*
X756915Y318515D01*
Y315976D01*
X942848Y607060D02*
Y622295D01*
X950465D01*
X953005Y619756D01*
Y614678D01*
X950465Y612138D01*
X942848D01*
X947926D02*
X953005Y607060D01*
X968240Y622295D02*
X963161Y619756D01*
X958083Y614678D01*
Y609599D01*
X960622Y607060D01*
X965701D01*
X968240Y609599D01*
Y612138D01*
X965701Y614678D01*
X958083D01*
X605790Y203962D02*
Y219197D01*
X613408D01*
X615947Y216658D01*
Y211579D01*
X613408Y209040D01*
X605790D01*
X610868D02*
X615947Y203962D01*
X631182Y219197D02*
X621025D01*
Y211579D01*
X626103Y214119D01*
X628643D01*
X631182Y211579D01*
Y206501D01*
X628643Y203962D01*
X623564D01*
X621025Y206501D01*
X698500Y62992D02*
Y78227D01*
X706117D01*
X708657Y75688D01*
Y70609D01*
X706117Y68070D01*
X698500D01*
X703578D02*
X708657Y62992D01*
X721353D02*
Y78227D01*
X713735Y70609D01*
X723892D01*
X998220Y569976D02*
Y585211D01*
X1005837D01*
X1008377Y582672D01*
Y577593D01*
X1005837Y575054D01*
X998220D01*
X1003298D02*
X1008377Y569976D01*
X1013455Y582672D02*
X1015994Y585211D01*
X1021073D01*
X1023612Y582672D01*
Y580133D01*
X1021073Y577593D01*
X1018533D01*
X1021073D01*
X1023612Y575054D01*
Y572515D01*
X1021073Y569976D01*
X1015994D01*
X1013455Y572515D01*
X889000Y64262D02*
Y79497D01*
X896618D01*
X899157Y76958D01*
Y71880D01*
X896618Y69340D01*
X889000D01*
X894078D02*
X899157Y64262D01*
X914392D02*
X904235D01*
X914392Y74419D01*
Y76958D01*
X911853Y79497D01*
X906774D01*
X904235Y76958D01*
X558803Y275592D02*
Y290828D01*
X566421D01*
X568960Y288288D01*
Y283210D01*
X566421Y280671D01*
X558803D01*
X563882D02*
X568960Y275592D01*
X574038D02*
X579117D01*
X576578D01*
Y290828D01*
X574038Y288288D01*
X203200Y375661D02*
Y360426D01*
X213357D01*
X228592D02*
X218435D01*
X228592Y370583D01*
Y373122D01*
X226053Y375661D01*
X220974D01*
X218435Y373122D01*
X721109Y230884D02*
Y215648D01*
X731266D01*
X736344D02*
X741423D01*
X738884D01*
Y230884D01*
X736344Y228344D01*
X1210564Y361437D02*
Y346202D01*
Y351280D01*
X1220721Y361437D01*
X1213103Y353820D01*
X1220721Y346202D01*
X1225799D02*
X1230877D01*
X1228338D01*
Y361437D01*
X1225799Y358898D01*
X1248652Y346202D02*
X1238495D01*
X1248652Y356359D01*
Y358898D01*
X1246113Y361437D01*
X1241034D01*
X1238495Y358898D01*
X1055624Y148331D02*
Y133096D01*
Y138174D01*
X1065781Y148331D01*
X1058163Y140714D01*
X1065781Y133096D01*
X1070859D02*
X1075937D01*
X1073398D01*
Y148331D01*
X1070859Y145792D01*
X1083555D02*
X1086094Y148331D01*
X1091172D01*
X1093712Y145792D01*
Y135635D01*
X1091172Y133096D01*
X1086094D01*
X1083555Y135635D01*
Y145792D01*
X947674Y434081D02*
Y418846D01*
Y423924D01*
X957831Y434081D01*
X950213Y426464D01*
X957831Y418846D01*
X962909Y421385D02*
X965448Y418846D01*
X970527D01*
X973066Y421385D01*
Y431542D01*
X970527Y434081D01*
X965448D01*
X962909Y431542D01*
Y429003D01*
X965448Y426464D01*
X973066D01*
X1147064Y430271D02*
Y415036D01*
Y420114D01*
X1157221Y430271D01*
X1149603Y422654D01*
X1157221Y415036D01*
X1162299Y430271D02*
X1172456D01*
Y427732D01*
X1162299Y417575D01*
Y415036D01*
X872744Y262631D02*
Y247396D01*
Y252474D01*
X882901Y262631D01*
X875283Y255014D01*
X882901Y247396D01*
X898136Y262631D02*
X893057Y260092D01*
X887979Y255014D01*
Y249935D01*
X890518Y247396D01*
X895597D01*
X898136Y249935D01*
Y252474D01*
X895597Y255014D01*
X887979D01*
X1083564Y434081D02*
Y418846D01*
Y423924D01*
X1093721Y434081D01*
X1086103Y426464D01*
X1093721Y418846D01*
X1108956Y434081D02*
X1098799D01*
Y426464D01*
X1103877Y429003D01*
X1106417D01*
X1108956Y426464D01*
Y421385D01*
X1106417Y418846D01*
X1101338D01*
X1098799Y421385D01*
X875284Y369311D02*
Y354076D01*
Y359154D01*
X885441Y369311D01*
X877823Y361693D01*
X885441Y354076D01*
X898137D02*
Y369311D01*
X890519Y361693D01*
X900676D01*
X286030Y179576D02*
X291108D01*
X288569D01*
Y164340D01*
X286030D01*
X291108D01*
X298726D02*
Y179576D01*
X306343D01*
X308883Y177036D01*
Y171958D01*
X306343Y169419D01*
X298726D01*
X303804D02*
X308883Y164340D01*
X324118Y179576D02*
X313961D01*
Y171958D01*
X319039D01*
X313961D01*
Y164340D01*
X329196Y166880D02*
X331735Y164340D01*
X336813D01*
X339353Y166880D01*
Y177036D01*
X336813Y179576D01*
X331735D01*
X329196Y177036D01*
Y174497D01*
X331735Y171958D01*
X339353D01*
X344431Y179576D02*
X354588D01*
Y177036D01*
X344431Y166880D01*
Y164340D01*
X354588D01*
X359666Y177036D02*
X362205Y179576D01*
X367284D01*
X369823Y177036D01*
Y174497D01*
X367284Y171958D01*
X364744D01*
X367284D01*
X369823Y169419D01*
Y166880D01*
X367284Y164340D01*
X362205D01*
X359666Y166880D01*
X382519Y164340D02*
Y179576D01*
X374901Y171958D01*
X385058D01*
X390136Y164340D02*
Y179576D01*
X400293Y164340D01*
Y179576D01*
X405371Y164340D02*
Y179576D01*
X412989D01*
X415528Y177036D01*
Y171958D01*
X412989Y169419D01*
X405371D01*
X420606Y179576D02*
Y164340D01*
X428224D01*
X430763Y166880D01*
Y169419D01*
X428224Y171958D01*
X420606D01*
X428224D01*
X430763Y174497D01*
Y177036D01*
X428224Y179576D01*
X420606D01*
X445998D02*
X435841D01*
Y171958D01*
X440920D01*
X435841D01*
Y164340D01*
X980446Y341628D02*
X985525D01*
X982985D01*
Y326393D01*
X980446D01*
X985525D01*
X1003299Y339088D02*
X1000760Y341628D01*
X995681D01*
X993142Y339088D01*
Y328932D01*
X995681Y326393D01*
X1000760D01*
X1003299Y328932D01*
X1008377Y339088D02*
X1010916Y341628D01*
X1015995D01*
X1018534Y339088D01*
Y336549D01*
X1015995Y334010D01*
X1013456D01*
X1015995D01*
X1018534Y331471D01*
Y328932D01*
X1015995Y326393D01*
X1010916D01*
X1008377Y328932D01*
X509276Y620266D02*
X514355D01*
X511815D01*
Y605031D01*
X509276D01*
X514355D01*
X532129Y617726D02*
X529590Y620266D01*
X524511D01*
X521972Y617726D01*
Y607570D01*
X524511Y605031D01*
X529590D01*
X532129Y607570D01*
X547364Y605031D02*
X537207D01*
X547364Y615187D01*
Y617726D01*
X544825Y620266D01*
X539746D01*
X537207Y617726D01*
X955806Y565401D02*
Y550167D01*
X963424D01*
X965963Y552706D01*
Y562862D01*
X963424Y565401D01*
X955806D01*
X981198Y550167D02*
X971041D01*
X981198Y560323D01*
Y562862D01*
X978659Y565401D01*
X973580D01*
X971041Y562862D01*
X557022Y641853D02*
Y626618D01*
X564640D01*
X567179Y629157D01*
Y639314D01*
X564640Y641853D01*
X557022D01*
X572257Y626618D02*
X577335D01*
X574796D01*
Y641853D01*
X572257Y639314D01*
X770125Y75180D02*
X767586Y77719D01*
X762507D01*
X759968Y75180D01*
Y65023D01*
X762507Y62484D01*
X767586D01*
X770125Y65023D01*
X775203Y62484D02*
X780281D01*
X777742D01*
Y77719D01*
X775203Y75180D01*
X787899D02*
X790438Y77719D01*
X795517D01*
X798056Y75180D01*
Y72641D01*
X795517Y70101D01*
X792977D01*
X795517D01*
X798056Y67562D01*
Y65023D01*
X795517Y62484D01*
X790438D01*
X787899Y65023D01*
X1105151Y583688D02*
X1102611Y586227D01*
X1097533D01*
X1094994Y583688D01*
Y573531D01*
X1097533Y570992D01*
X1102611D01*
X1105151Y573531D01*
X1110229Y570992D02*
X1115307D01*
X1112768D01*
Y586227D01*
X1110229Y583688D01*
X1133082Y570992D02*
X1122925D01*
X1133082Y581149D01*
Y583688D01*
X1130543Y586227D01*
X1125464D01*
X1122925Y583688D01*
X667255Y149348D02*
X664715Y151887D01*
X659637D01*
X657098Y149348D01*
Y139191D01*
X659637Y136652D01*
X664715D01*
X667255Y139191D01*
X672333Y136652D02*
X677411D01*
X674872D01*
Y151887D01*
X672333Y149348D01*
X685029Y136652D02*
X690107D01*
X687568D01*
Y151887D01*
X685029Y149348D01*
X936495Y77212D02*
X933956Y79751D01*
X928877D01*
X926338Y77212D01*
Y67055D01*
X928877Y64516D01*
X933956D01*
X936495Y67055D01*
X941573Y64516D02*
X946651D01*
X944112D01*
Y79751D01*
X941573Y77212D01*
X954269D02*
X956808Y79751D01*
X961887D01*
X964426Y77212D01*
Y67055D01*
X961887Y64516D01*
X956808D01*
X954269Y67055D01*
Y77212D01*
X935225Y172970D02*
X932685Y175509D01*
X927607D01*
X925068Y172970D01*
Y162813D01*
X927607Y160274D01*
X932685D01*
X935225Y162813D01*
X940303D02*
X942842Y160274D01*
X947921D01*
X950460Y162813D01*
Y172970D01*
X947921Y175509D01*
X942842D01*
X940303Y172970D01*
Y170431D01*
X942842Y167892D01*
X950460D01*
X742185Y162302D02*
X739645Y164841D01*
X734567D01*
X732028Y162302D01*
Y152145D01*
X734567Y149606D01*
X739645D01*
X742185Y152145D01*
X747263Y162302D02*
X749802Y164841D01*
X754881D01*
X757420Y162302D01*
Y159763D01*
X754881Y157224D01*
X757420Y154684D01*
Y152145D01*
X754881Y149606D01*
X749802D01*
X747263Y152145D01*
Y154684D01*
X749802Y157224D01*
X747263Y159763D01*
Y162302D01*
X749802Y157224D02*
X754881D01*
X665985Y76450D02*
X663446Y78989D01*
X658367D01*
X655828Y76450D01*
Y66293D01*
X658367Y63754D01*
X663446D01*
X665985Y66293D01*
X671063Y78989D02*
X681220D01*
Y76450D01*
X671063Y66293D01*
Y63754D01*
X581407Y131062D02*
X578868Y133602D01*
X573789D01*
X571250Y131062D01*
Y120906D01*
X573789Y118366D01*
X578868D01*
X581407Y120906D01*
X596642Y133602D02*
X591563Y131062D01*
X586485Y125984D01*
Y120906D01*
X589024Y118366D01*
X594103D01*
X596642Y120906D01*
Y123445D01*
X594103Y125984D01*
X586485D01*
X294387Y477772D02*
X291848Y480312D01*
X286769D01*
X284230Y477772D01*
Y467616D01*
X286769Y465076D01*
X291848D01*
X294387Y467616D01*
X309622Y480312D02*
X299465D01*
Y472694D01*
X304543Y475233D01*
X307083D01*
X309622Y472694D01*
Y467616D01*
X307083Y465076D01*
X302004D01*
X299465Y467616D01*
X291847Y411732D02*
X289308Y414272D01*
X284229D01*
X281690Y411732D01*
Y401576D01*
X284229Y399036D01*
X289308D01*
X291847Y401576D01*
X304543Y399036D02*
Y414272D01*
X296925Y406654D01*
X307082D01*
X1163825Y581910D02*
X1161285Y584449D01*
X1156207D01*
X1153668Y581910D01*
Y571753D01*
X1156207Y569214D01*
X1161285D01*
X1163825Y571753D01*
X1168903Y581910D02*
X1171442Y584449D01*
X1176521D01*
X1179060Y581910D01*
Y579371D01*
X1176521Y576832D01*
X1173981D01*
X1176521D01*
X1179060Y574292D01*
Y571753D01*
X1176521Y569214D01*
X1171442D01*
X1168903Y571753D01*
X479549Y317242D02*
X477010Y319781D01*
X471931D01*
X469392Y317242D01*
Y307085D01*
X471931Y304546D01*
X477010D01*
X479549Y307085D01*
X494784Y304546D02*
X484627D01*
X494784Y314703D01*
Y317242D01*
X492245Y319781D01*
X487166D01*
X484627Y317242D01*
X681733Y678176D02*
X679193Y680715D01*
X674115D01*
X671576Y678176D01*
Y668019D01*
X674115Y665480D01*
X679193D01*
X681733Y668019D01*
X686811Y665480D02*
X691889D01*
X689350D01*
Y680715D01*
X686811Y678176D01*
X527050Y481071D02*
Y465836D01*
X534668D01*
X537207Y468375D01*
Y470914D01*
X534668Y473453D01*
X527050D01*
X534668D01*
X537207Y475993D01*
Y478532D01*
X534668Y481071D01*
X527050D01*
X552442Y465836D02*
X542285D01*
X552442Y475993D01*
Y478532D01*
X549903Y481071D01*
X544824D01*
X542285Y478532D01*
X410210Y483611D02*
Y468376D01*
X417827D01*
X420367Y470915D01*
Y473454D01*
X417827Y475993D01*
X410210D01*
X417827D01*
X420367Y478533D01*
Y481072D01*
X417827Y483611D01*
X410210D01*
X425445Y468376D02*
X430523D01*
X427984D01*
Y483611D01*
X425445Y481072D01*
D17*
X1226820Y181946D02*
Y173482D01*
X1218356Y181946D01*
X1216240D01*
X1214124Y179830D01*
Y175598D01*
X1216240Y173482D01*
X1251712Y176276D02*
Y180508D01*
Y178392D01*
X1239016D01*
X1241132Y176276D01*
X1250104Y319532D02*
X1252220Y321648D01*
Y325880D01*
X1250104Y327996D01*
X1241640D01*
X1239524Y325880D01*
Y321648D01*
X1241640Y319532D01*
X1243756D01*
X1245872Y321648D01*
Y327996D01*
X1226312Y319024D02*
Y323256D01*
Y321140D01*
X1213616D01*
X1215732Y319024D01*
Y329604D02*
X1213616Y331720D01*
Y335952D01*
X1215732Y338068D01*
X1224196D01*
X1226312Y335952D01*
Y331720D01*
X1224196Y329604D01*
X1215732D01*
M02*
