G04*
G04 #@! TF.GenerationSoftware,Altium Limited,Altium Designer,23.4.1 (23)*
G04*
G04 Layer_Physical_Order=1*
G04 Layer_Color=255*
%FSLAX44Y44*%
%MOMM*%
G71*
G04*
G04 #@! TF.SameCoordinates,80FF149A-008E-4E34-88B8-DC70BB772429*
G04*
G04*
G04 #@! TF.FilePolarity,Positive*
G04*
G01*
G75*
%ADD16C,0.2540*%
%ADD17C,0.2032*%
%ADD22R,1.3046X1.4562*%
%ADD23R,1.4562X1.3046*%
G04:AMPARAMS|DCode=28|XSize=0.2525mm|YSize=1.6552mm|CornerRadius=0.1262mm|HoleSize=0mm|Usage=FLASHONLY|Rotation=180.000|XOffset=0mm|YOffset=0mm|HoleType=Round|Shape=RoundedRectangle|*
%AMROUNDEDRECTD28*
21,1,0.2525,1.4028,0,0,180.0*
21,1,0.0000,1.6552,0,0,180.0*
1,1,0.2525,0.0000,0.7014*
1,1,0.2525,0.0000,0.7014*
1,1,0.2525,0.0000,-0.7014*
1,1,0.2525,0.0000,-0.7014*
%
%ADD28ROUNDEDRECTD28*%
G04:AMPARAMS|DCode=29|XSize=1.6552mm|YSize=0.2525mm|CornerRadius=0.1262mm|HoleSize=0mm|Usage=FLASHONLY|Rotation=180.000|XOffset=0mm|YOffset=0mm|HoleType=Round|Shape=RoundedRectangle|*
%AMROUNDEDRECTD29*
21,1,1.6552,0.0000,0,0,180.0*
21,1,1.4028,0.2525,0,0,180.0*
1,1,0.2525,-0.7014,0.0000*
1,1,0.2525,0.7014,0.0000*
1,1,0.2525,0.7014,0.0000*
1,1,0.2525,-0.7014,0.0000*
%
%ADD29ROUNDEDRECTD29*%
%ADD30R,1.6552X0.2525*%
%ADD47O,1.7000X0.4500*%
%ADD48O,1.7000X0.3500*%
%ADD49R,1.4500X1.0500*%
%ADD50R,1.2200X0.9100*%
%ADD51R,1.0500X1.4500*%
%ADD52R,1.0000X2.8500*%
%ADD53R,5.6500X6.9000*%
%ADD54R,0.8000X0.9000*%
%ADD55R,1.7800X4.2700*%
%ADD56R,1.1000X2.9000*%
%ADD57R,0.9000X0.8000*%
%ADD58R,0.9100X1.2200*%
%ADD59R,1.7000X1.5000*%
%ADD60C,0.5080*%
%ADD61C,2.0320*%
%ADD62C,2.5400*%
%ADD63C,1.0160*%
%ADD64C,1.7780*%
%ADD65C,1.5190*%
%ADD66R,1.8000X1.8000*%
%ADD67C,1.8000*%
%ADD68C,1.2000*%
%ADD69C,1.5000*%
%ADD70R,1.5000X1.5000*%
%ADD71R,1.5000X1.5000*%
%ADD72C,2.1000*%
%ADD73C,0.6350*%
%ADD74C,1.2700*%
%ADD75C,0.7112*%
D16*
X468040Y208870D02*
X468130Y208960D01*
D17*
X1108055Y235390D02*
X1115069D01*
X1127696Y222763D01*
Y218250D02*
Y222763D01*
Y218250D02*
X1128522Y217424D01*
X1102360Y202692D02*
X1120902D01*
X1094300Y210752D02*
X1102360Y202692D01*
X633874Y175493D02*
X635673Y177292D01*
X633874Y175302D02*
Y175493D01*
X630174Y170434D02*
Y171602D01*
X613410Y169820D02*
X614024Y170434D01*
X630174Y171602D02*
X633874Y175302D01*
X614024Y170434D02*
X630174D01*
X635673Y177292D02*
X685292D01*
X994664Y239014D02*
X995833D01*
X997800Y237046D01*
X998418D01*
X1000252Y248412D02*
X1012230Y260390D01*
X1029970Y323951D02*
Y325120D01*
Y323951D02*
X1033780Y320141D01*
Y316678D02*
Y320141D01*
Y316678D02*
X1039300Y311159D01*
X1089300Y294386D02*
Y314600D01*
X1095184Y320484D02*
X1097724D01*
X1098550Y321310D01*
X1089300Y314600D02*
X1095184Y320484D01*
X1084300Y316894D02*
X1095067Y327660D01*
X1101852D01*
X1084300Y273064D02*
Y316894D01*
X1076268Y265032D02*
X1084300Y273064D01*
X1069300Y258064D02*
X1076268Y265032D01*
X1042946D02*
X1076268D01*
X1093648Y280390D02*
X1108055D01*
X1092098Y281940D02*
X1093648Y280390D01*
X1090930Y281940D02*
X1092098D01*
X1005840Y515620D02*
Y535940D01*
X994410Y388620D02*
X1042670Y340360D01*
X994410Y388620D02*
Y504190D01*
X1005840Y515620D01*
X1049300Y304145D02*
Y313410D01*
X1042670Y320040D02*
X1049300Y313410D01*
X1054300Y297055D02*
Y304145D01*
Y297055D02*
X1064260Y287096D01*
Y287020D02*
Y287096D01*
X1052932Y279400D02*
X1054100D01*
X1049216Y283115D02*
X1052932Y279400D01*
X1044300Y286004D02*
X1047189Y283115D01*
X1049216D01*
X1044300Y286004D02*
Y304145D01*
X986968Y280390D02*
X1025545D01*
X984148Y283210D02*
X986968Y280390D01*
X982980Y283210D02*
X984148D01*
X985520Y306070D02*
Y316230D01*
Y306070D02*
X1006200Y285390D01*
X1018531Y290390D02*
X1025545D01*
X1009206Y299715D02*
X1018531Y290390D01*
X1009206Y299715D02*
Y303974D01*
X1008380Y304800D02*
X1009206Y303974D01*
X1006200Y285390D02*
X1025545D01*
X952500Y182880D02*
X979424D01*
X1001776Y205232D01*
X1001764Y270510D02*
X1036767D01*
X952500Y200660D02*
X967740D01*
X1012470Y245390D01*
X1025545D01*
X1130300Y177800D02*
Y195580D01*
X1013460Y138790D02*
X1015460D01*
X1053644Y176974D01*
X1055814D01*
X1056640Y177800D01*
X1099820Y195580D02*
X1130300D01*
X1089300Y206100D02*
X1099820Y195580D01*
X1219146Y200660D02*
X1221740D01*
X1089300Y206100D02*
Y221635D01*
X1145540Y269748D02*
X1163828Y251460D01*
X1069300Y160060D02*
Y221635D01*
Y160060D02*
X1117600Y111760D01*
X934720Y142628D02*
Y203466D01*
X1001764Y270510D01*
X1036887Y270390D02*
X1037589D01*
X1036767Y270510D02*
X1036887Y270390D01*
X1025545D02*
X1036887D01*
X1037589D02*
X1042946Y265032D01*
X1101852Y327660D02*
X1111027Y318485D01*
Y312113D02*
Y318485D01*
Y312113D02*
X1158980Y264160D01*
X1069300Y221635D02*
Y258064D01*
X1158980Y264160D02*
X1234440D01*
X1247140Y251460D01*
X1013460Y120290D02*
X1049422D01*
X1064300Y135168D01*
Y147026D01*
X1079500Y110490D02*
Y131826D01*
Y110490D02*
X1091318Y98672D01*
X1132707D01*
X1145540Y111505D02*
Y269748D01*
X1120902Y294386D02*
X1145540Y269748D01*
X1097788Y294386D02*
X1120902D01*
X1090570Y293116D02*
X1096518D01*
X1064300Y147026D02*
Y221635D01*
Y147026D02*
X1079500Y131826D01*
X1132707Y98672D02*
X1145540Y111505D01*
X1163828Y251460D02*
X1221740D01*
X1096518Y293116D02*
X1097788Y294386D01*
X1089300D02*
X1090570Y293116D01*
X685292Y177292D02*
X863600Y355600D01*
X1016374D01*
X1059300Y312674D01*
Y304145D02*
Y312674D01*
X1063752Y457750D02*
X1070356Y451146D01*
X1052830Y457750D02*
X1063752D01*
X1070356Y339598D02*
Y451146D01*
X726052Y195580D02*
Y203320D01*
X728472Y205740D01*
X754380D01*
X772160Y187960D01*
X886406D01*
X973836Y275390D01*
X1025545D01*
X1108055Y240390D02*
X1123590D01*
X1135380Y228600D01*
X1108055Y245390D02*
X1121690D01*
X1127760Y251460D01*
X1123696Y323797D02*
X1128776Y318717D01*
X1123696Y323797D02*
Y370840D01*
X1104646Y389890D02*
X1123696Y370840D01*
X1104646Y389890D02*
Y409448D01*
X1097280Y416814D02*
X1104646Y409448D01*
X1097280Y416814D02*
Y458110D01*
X1108055Y285390D02*
X1108149Y285295D01*
X1115511D01*
X1115578Y285229D01*
X1121931D01*
X1132840Y274320D01*
Y264160D02*
Y274320D01*
X1079300Y304145D02*
Y318062D01*
X1093978Y332740D01*
X1103122D01*
X1115060Y320802D01*
Y316685D02*
Y320802D01*
Y316685D02*
X1116330Y315415D01*
X1120701D01*
X1123442Y312674D01*
X1135380D01*
X1139444Y316738D01*
Y378206D01*
X1120140Y397510D02*
X1139444Y378206D01*
X1074300Y304145D02*
Y319412D01*
X1082040Y327152D01*
Y345440D01*
X1094740Y358140D01*
Y397510D01*
X1039300Y304145D02*
Y311159D01*
X801010Y264160D02*
Y272944D01*
X802386Y274320D01*
X860044D01*
X980440Y241300D02*
X981266Y242126D01*
X983806D01*
X1007070Y265390D01*
X1025545D01*
X1012230Y260390D02*
X1025545D01*
X1025451Y255295D02*
X1025545Y255390D01*
X1016667Y255295D02*
X1025451D01*
X998418Y237046D02*
X1016667Y255295D01*
X1045010Y250390D02*
X1051560Y243840D01*
X1025545Y250390D02*
X1045010D01*
X1001776Y205232D02*
Y227330D01*
X1014836Y240390D01*
X1025545D01*
X1074300Y175380D02*
X1082040Y167640D01*
X1074300Y175380D02*
Y221635D01*
X1092200Y111760D02*
X1101986Y101974D01*
X1124712D01*
X1127506Y104768D01*
Y160068D01*
X1079300Y208274D02*
X1127506Y160068D01*
X1079300Y208274D02*
Y221635D01*
X971550Y140060D02*
X971910Y139700D01*
X988060D01*
X1084300Y221635D02*
Y244120D01*
X1076960Y251460D02*
X1084300Y244120D01*
X1094300Y210752D02*
Y221635D01*
D22*
X742068Y195580D02*
D03*
X726052D02*
D03*
X338208Y396240D02*
D03*
X322192D02*
D03*
X680720Y116840D02*
D03*
X664704D02*
D03*
X1102360Y551180D02*
D03*
X1118375D02*
D03*
D23*
X614680Y118992D02*
D03*
Y135008D02*
D03*
X322580Y452120D02*
D03*
Y436104D02*
D03*
X935990Y30975D02*
D03*
Y46990D02*
D03*
X934720Y126612D02*
D03*
Y142628D02*
D03*
X769620Y28822D02*
D03*
Y44838D02*
D03*
X665480Y30092D02*
D03*
Y46108D02*
D03*
X1163320Y535552D02*
D03*
Y551568D02*
D03*
X741680Y116065D02*
D03*
Y132080D02*
D03*
D28*
X1094300Y221635D02*
D03*
X1089300D02*
D03*
X1084300D02*
D03*
X1079300D02*
D03*
X1074300D02*
D03*
X1069300D02*
D03*
X1064300D02*
D03*
X1059300D02*
D03*
X1054300D02*
D03*
X1049300D02*
D03*
X1044300D02*
D03*
X1039300D02*
D03*
Y304145D02*
D03*
X1044300D02*
D03*
X1049300D02*
D03*
X1054300D02*
D03*
X1059300D02*
D03*
X1064300D02*
D03*
X1069300D02*
D03*
X1074300D02*
D03*
X1079300D02*
D03*
X1084300D02*
D03*
X1089300D02*
D03*
X1094300D02*
D03*
D29*
X1025545Y235390D02*
D03*
Y240390D02*
D03*
Y245390D02*
D03*
Y250390D02*
D03*
Y255390D02*
D03*
Y260390D02*
D03*
Y265390D02*
D03*
Y270390D02*
D03*
Y275390D02*
D03*
Y280390D02*
D03*
Y285390D02*
D03*
Y290390D02*
D03*
X1108055D02*
D03*
Y285390D02*
D03*
Y280390D02*
D03*
Y275390D02*
D03*
Y270390D02*
D03*
Y265390D02*
D03*
Y260390D02*
D03*
Y255390D02*
D03*
Y250390D02*
D03*
Y245390D02*
D03*
Y240390D02*
D03*
D30*
Y235390D02*
D03*
D47*
X629240Y289150D02*
D03*
D48*
Y282650D02*
D03*
Y276150D02*
D03*
Y269650D02*
D03*
X671240Y289150D02*
D03*
Y282650D02*
D03*
Y276150D02*
D03*
Y269650D02*
D03*
D49*
X1009650Y476610D02*
D03*
Y458110D02*
D03*
X1052830Y457750D02*
D03*
Y476250D02*
D03*
X1097280Y476610D02*
D03*
Y458110D02*
D03*
X574040Y242210D02*
D03*
Y260710D02*
D03*
X665480Y168550D02*
D03*
Y187050D02*
D03*
X439420Y223520D02*
D03*
Y205020D02*
D03*
X1005840Y535940D02*
D03*
Y554440D02*
D03*
X896620Y30120D02*
D03*
Y48620D02*
D03*
X810260D02*
D03*
Y30120D02*
D03*
X749300Y281940D02*
D03*
Y300440D02*
D03*
X850900Y48260D02*
D03*
Y29760D02*
D03*
X706120Y47350D02*
D03*
Y28850D02*
D03*
X971550Y121560D02*
D03*
Y140060D02*
D03*
X613410Y188320D02*
D03*
Y169820D02*
D03*
X1013460Y120290D02*
D03*
Y138790D02*
D03*
D50*
X967740Y537050D02*
D03*
Y504350D02*
D03*
D51*
X339450Y353060D02*
D03*
X320950D02*
D03*
X819510Y264160D02*
D03*
X801010D02*
D03*
X966830Y589280D02*
D03*
X948330D02*
D03*
X610510Y45720D02*
D03*
X629010D02*
D03*
X1039770Y553720D02*
D03*
X1058270D02*
D03*
X1161690Y472440D02*
D03*
X1180190D02*
D03*
D52*
X373320Y127820D02*
D03*
X327720D02*
D03*
D53*
X350520Y59820D02*
D03*
D54*
X400660Y243680D02*
D03*
X381660D02*
D03*
X391160Y223680D02*
D03*
X337160Y238600D02*
D03*
X318160D02*
D03*
X327660Y218600D02*
D03*
D55*
X229870Y321020D02*
D03*
X255270D02*
D03*
X229870Y214920D02*
D03*
X255270D02*
D03*
D56*
X510540Y221460D02*
D03*
Y281460D02*
D03*
D57*
X395130Y306070D02*
D03*
X415130Y315570D02*
D03*
Y296570D02*
D03*
X650400Y355600D02*
D03*
X670400Y365100D02*
D03*
Y346100D02*
D03*
D58*
X560230Y609600D02*
D03*
X592930D02*
D03*
D59*
X482600Y452120D02*
D03*
X431800D02*
D03*
Y364490D02*
D03*
X482600D02*
D03*
X599440Y449580D02*
D03*
X548640D02*
D03*
Y361950D02*
D03*
X599440D02*
D03*
D60*
X594868Y79248D02*
X595212D01*
X602639Y71821D01*
X606359D01*
X610510Y67670D01*
X318160Y238600D02*
Y256044D01*
X314452Y259752D02*
X318160Y256044D01*
X314452Y259752D02*
Y260096D01*
X395130Y262109D02*
X400965Y256274D01*
X395130Y262109D02*
Y306070D01*
X400812Y243832D02*
Y255778D01*
X400965Y255931D02*
Y256274D01*
X400660Y243680D02*
X400812Y243832D01*
Y255778D02*
X400965Y255931D01*
X690626Y49530D02*
X690869Y49287D01*
X702637D01*
X703410Y50060D01*
X706120Y47350D01*
X389478Y263302D02*
X393452D01*
X378460Y274320D02*
X389478Y263302D01*
X588518Y289306D02*
X588862D01*
X595078Y283090D02*
X622369D01*
X588862Y289306D02*
X595078Y283090D01*
X573860Y260530D02*
X574040Y260710D01*
X559488Y260530D02*
X573860D01*
X559308Y260350D02*
X559488Y260530D01*
X621030Y276150D02*
X629240D01*
X528320Y307340D02*
X558920Y276740D01*
X620440D02*
X621030Y276150D01*
X558920Y276740D02*
X620440D01*
X988393Y554747D02*
X1005533D01*
X986880Y556260D02*
X988393Y554747D01*
X986536Y556260D02*
X986880D01*
X665480Y187050D02*
X665734Y187304D01*
Y205142D01*
X666242Y205650D01*
Y205994D01*
X683260Y210058D02*
X701040Y227838D01*
X683006Y210058D02*
X683260D01*
X701040Y227838D02*
Y273174D01*
X712724Y223012D02*
Y248076D01*
X713994Y249346D01*
Y274066D01*
X705410Y282650D02*
X713994Y274066D01*
X665068Y168137D02*
X665480Y168550D01*
X635762Y154432D02*
X649467Y168137D01*
X610108Y154432D02*
X635762D01*
X649467Y168137D02*
X665068D01*
X602234Y162306D02*
X610108Y154432D01*
X353060Y274320D02*
X378460D01*
X922020Y30547D02*
X935563D01*
X897048D02*
X922020D01*
Y106680D01*
X613410Y188320D02*
X614077Y188987D01*
X632217D01*
X632460Y189230D01*
X574040Y242210D02*
X576337Y239913D01*
Y223763D02*
Y239913D01*
Y223763D02*
X576580Y223520D01*
X339450Y353060D02*
X391160D01*
X427990Y316230D01*
X1266190Y266700D02*
Y336550D01*
X1247140Y251460D02*
X1249824D01*
X1253531Y255166D02*
X1254656D01*
X1249824Y251460D02*
X1253531Y255166D01*
X1254656D02*
X1266190Y266700D01*
X1209040Y393700D02*
X1266190Y336550D01*
X454660Y452120D02*
X482600D01*
X971300Y533490D02*
Y535040D01*
X969290Y537050D02*
X971300Y535040D01*
X967740Y537050D02*
X969290D01*
X971300Y533490D02*
X975200Y529590D01*
X998154D01*
X1001130Y532566D02*
Y533230D01*
X1003840Y535940D01*
X998154Y529590D02*
X1001130Y532566D01*
X1003840Y535940D02*
X1005840D01*
X967285Y537505D02*
X967740Y537050D01*
X1161690Y472440D02*
X1161870Y472260D01*
Y454840D02*
Y472260D01*
Y454840D02*
X1162050Y454660D01*
X1180010Y472260D02*
X1180190Y472440D01*
X1180010Y447220D02*
Y472260D01*
X1179830Y447040D02*
X1180010Y447220D01*
X1115060Y533400D02*
X1115303Y533643D01*
Y548108D01*
X622369Y283090D02*
X622808Y282650D01*
X629240D01*
X649900Y355600D02*
X650400D01*
X629580Y335280D02*
X649900Y355600D01*
X499110Y335280D02*
X629580D01*
X501229Y304364D02*
X504205Y307340D01*
X501229Y263149D02*
Y304364D01*
X504205Y307340D02*
X528320D01*
X488529Y243320D02*
Y305649D01*
X501650Y318770D02*
X598107D01*
X488529Y305649D02*
X501650Y318770D01*
X598107D02*
X627727Y289150D01*
X512998Y270002D02*
X585216D01*
X883920Y149860D02*
X926730D01*
X933962Y142628D01*
X934720D01*
X715010Y326390D02*
X726440D01*
X818123Y262773D02*
X819510Y264160D01*
X818123Y246623D02*
Y262773D01*
X817880Y246380D02*
X818123Y246623D01*
X772160Y276860D02*
Y291664D01*
X749300Y300440D02*
X750086Y299654D01*
X764170D01*
X772160Y291664D01*
X763270Y267970D02*
X772160Y276860D01*
X731520Y267970D02*
X763270D01*
X671240Y289150D02*
X710340D01*
X731520Y267970D01*
X591723Y413777D02*
X649900Y355600D01*
X590793Y413777D02*
X591723D01*
X590550Y414020D02*
X590793Y413777D01*
X415130Y315570D02*
X426986D01*
X427646Y316230D01*
X427990D01*
X599052Y135008D02*
X614680D01*
X590550Y143510D02*
X599052Y135008D01*
X971550Y106680D02*
Y121560D01*
X1115303Y548108D02*
X1118375Y551180D01*
X1150366D01*
X952576Y504190D02*
X967580D01*
X981630Y504270D02*
X981710Y504190D01*
X948330Y508436D02*
X952576Y504190D01*
X967740Y504350D02*
X967820Y504270D01*
X981630D01*
X967580Y504190D02*
X967740Y504350D01*
X948330Y508436D02*
Y589280D01*
X1005533Y554747D02*
X1005840Y554440D01*
X322580Y452120D02*
X323215Y452755D01*
Y474345D02*
X323850Y474980D01*
X966830Y589280D02*
X967285Y588825D01*
Y537505D02*
Y588825D01*
X614680Y118992D02*
X624452D01*
X637297Y131837D01*
X624452Y117916D02*
X663628D01*
X610510Y45720D02*
Y67670D01*
X742068Y177412D02*
X762000Y157480D01*
Y104140D02*
Y157480D01*
X754120Y104383D02*
X761757D01*
X762000Y104140D01*
X742068Y178308D02*
Y195580D01*
Y177412D02*
Y178308D01*
X726052Y194822D02*
Y195580D01*
X699113Y167883D02*
X726052Y194822D01*
X698743Y167883D02*
X699113D01*
X698500Y167640D02*
X698743Y167883D01*
X680720Y116840D02*
X698500D01*
X741680Y116065D02*
X742438D01*
X754120Y104383D01*
X934720Y142628D02*
X938703Y138644D01*
X948476D01*
X952500Y134620D01*
Y88900D02*
Y134620D01*
X935990Y46990D02*
Y72390D01*
X952500Y88900D01*
X971550Y121560D02*
X978916D01*
X922263Y114913D02*
X933962Y126612D01*
X934720D01*
X922263Y106923D02*
Y114913D01*
X922020Y106680D02*
X922263Y106923D01*
X948690Y46990D02*
X952500Y43180D01*
Y19994D02*
Y43180D01*
X935990Y46990D02*
X948690D01*
X949524Y17018D02*
X952500Y19994D01*
X819404Y17018D02*
X949524D01*
X896620Y30120D02*
X897048Y30547D01*
X935563D02*
X935990Y30975D01*
X670996Y132080D02*
X741680D01*
X664704Y116840D02*
X668020Y120156D01*
Y129104D01*
X670996Y132080D01*
X663628Y117916D02*
X664704Y116840D01*
Y73420D02*
Y116840D01*
Y73420D02*
X674497Y63627D01*
X373320Y127820D02*
X373350Y127850D01*
Y154910D01*
X373380Y154940D01*
X391160Y223180D02*
Y223680D01*
X373623Y205643D02*
X391160Y223180D01*
X373623Y198363D02*
Y205643D01*
X373380Y198120D02*
X373623Y198363D01*
X422360Y187960D02*
X439420Y205020D01*
X319786Y209338D02*
X341164Y187960D01*
X422360D01*
X439420Y91876D02*
Y205020D01*
X255270Y214920D02*
Y227370D01*
X271497Y243597D01*
X281697D01*
X281940Y243840D01*
X381660Y243680D02*
Y244180D01*
X373623Y252217D02*
X381660Y244180D01*
X373623Y252217D02*
Y261377D01*
X373380Y261620D02*
X373623Y261377D01*
X337160Y238600D02*
Y283820D01*
X345440Y292100D01*
X598440Y449580D02*
X599440D01*
X582004D02*
X598440D01*
X579464Y452120D02*
X582004Y449580D01*
X579120Y452120D02*
X579464D01*
X322192Y396240D02*
X322386Y396434D01*
Y435910D02*
X322580Y436104D01*
X321571Y395619D02*
X322192Y396240D01*
X321571Y353681D02*
Y395619D01*
X320950Y353060D02*
X321571Y353681D01*
X320950Y321670D02*
X336550Y306070D01*
X320950Y321670D02*
Y353060D01*
X336550Y306070D02*
X395130D01*
X812292Y24130D02*
Y30120D01*
X664972Y289150D02*
Y291752D01*
X1007618Y445262D02*
Y458110D01*
X850900Y29760D02*
X875031D01*
X875750Y30480D01*
X876300D01*
X671240Y269650D02*
X687587D01*
X690537Y266700D01*
X690880D01*
X671240Y276150D02*
X698064D01*
X701040Y273174D01*
X780662Y29090D02*
X780796Y28956D01*
X671240Y282650D02*
X705410D01*
X376230Y88900D02*
X436444D01*
X439420Y91876D01*
X350520Y59820D02*
Y63190D01*
X376230Y88900D01*
X737228Y44838D02*
X760864D01*
X635254Y68326D02*
X646176Y57404D01*
X780796Y28956D02*
X791210Y39370D01*
X394970Y235204D02*
X406748D01*
X383946D02*
X394970D01*
X406654Y223520D01*
X386494Y243680D02*
X394970Y235204D01*
X319786Y209338D02*
Y226314D01*
X322072Y228600D01*
X332232D01*
X337160Y233528D01*
Y238600D01*
X406654Y223520D02*
X439420D01*
X381660Y243680D02*
X386494D01*
X381660Y237490D02*
Y243680D01*
Y237490D02*
X383946Y235204D01*
X406748D02*
X415130Y243586D01*
Y296570D01*
X377698Y223680D02*
X391160D01*
X372618Y218600D02*
X377698Y223680D01*
X327660Y218600D02*
X372618D01*
X431800Y364490D02*
X457200D01*
X474218Y347472D01*
X596392D01*
X599440Y350520D01*
Y361950D01*
X657352Y30092D02*
X665480D01*
X653288Y34156D02*
X657352Y30092D01*
X653288Y34156D02*
Y50292D01*
X624078Y68326D02*
X635254D01*
X494879Y197525D02*
X624078Y68326D01*
X494879Y197525D02*
Y236970D01*
X488529Y243320D02*
X494879Y236970D01*
X627727Y289150D02*
X629240D01*
X522169Y242210D02*
X574040D01*
X501229Y263149D02*
X522169Y242210D01*
X510540Y221460D02*
Y243332D01*
X498602Y255270D02*
X510540Y243332D01*
X850900Y48260D02*
X873400D01*
X873760Y48620D01*
X896620D01*
X830940Y48260D02*
X850900D01*
X830580Y48620D02*
X830940Y48260D01*
X810260Y48620D02*
X830580D01*
X780662Y28822D02*
X780796Y28956D01*
X769620Y28822D02*
X780662D01*
X718439Y63627D02*
X737228Y44838D01*
X674497Y63627D02*
X718439D01*
X665480Y54610D02*
X674497Y63627D01*
X665480Y46108D02*
Y54610D01*
X792988Y55224D02*
Y128270D01*
Y55224D02*
X799592Y48620D01*
X810260D01*
X760864Y44838D02*
X769620D01*
X758444Y42418D02*
X760864Y44838D01*
X758444Y18288D02*
Y42418D01*
Y18288D02*
X785220D01*
X797052Y30120D01*
X810260D01*
X831046Y29760D02*
X850900D01*
X821436Y39370D02*
X831046Y29760D01*
X791210Y39370D02*
X821436D01*
X646176Y57404D02*
X653288Y50292D01*
X622554Y57404D02*
X646176D01*
X619760Y54610D02*
X622554Y57404D01*
X619760Y16510D02*
Y54610D01*
Y16510D02*
X625602Y10668D01*
X681736D01*
X690626Y19558D01*
Y24130D01*
X695346Y28850D01*
X706120D01*
X665480Y46108D02*
X675506D01*
X681228Y40386D01*
Y24892D02*
Y40386D01*
X675894Y19558D02*
X681228Y24892D01*
X641096Y19558D02*
X675894D01*
X629010Y31644D02*
X641096Y19558D01*
X629010Y31644D02*
Y45720D01*
X810260Y30120D02*
X812292D01*
Y24130D02*
X819404Y17018D01*
X1150366Y452374D02*
X1209040Y393700D01*
X1150366Y452374D02*
Y551180D01*
X1150754Y551568D01*
X1163320D01*
X602234Y162306D02*
Y211074D01*
X625983Y234823D01*
X632968D01*
X641604Y243459D01*
Y280162D01*
X646460Y285018D01*
X648648D01*
X652780Y289150D01*
X664972D01*
X650400Y306324D02*
Y355600D01*
X664972Y289150D02*
X671240D01*
X650400Y306324D02*
X664972Y291752D01*
X710318Y146558D02*
X742068Y178308D01*
X608584Y146558D02*
X710318D01*
X595884Y159258D02*
X608584Y146558D01*
X595884Y159258D02*
Y259842D01*
X605692Y269650D01*
X585216Y270002D02*
X585568Y269650D01*
X605692D02*
X629240D01*
X585568D02*
X605692D01*
X978916Y121560D02*
X980185Y120290D01*
X1013460D01*
X1161690Y472440D02*
Y474472D01*
X1163320Y476102D01*
Y535552D01*
X1080008Y551180D02*
X1102360D01*
X1068070Y539242D02*
X1080008Y551180D01*
X1068070Y462068D02*
Y539242D01*
X1063752Y457750D02*
X1068070Y462068D01*
X1080262Y485902D02*
X1089554Y476610D01*
X1097280D01*
X1023366Y427736D02*
Y468376D01*
X1031240Y476250D01*
X1052830D01*
Y546248D01*
X1058270Y551688D01*
Y553720D01*
X1009650Y476610D02*
X1021334D01*
X1039770Y495047D01*
Y553720D01*
X1001776Y439420D02*
X1007618Y445262D01*
Y458110D02*
X1009650D01*
D61*
X361950Y434340D02*
Y508000D01*
Y434340D02*
X431800Y364490D01*
X424180Y542290D02*
X496570D01*
X337820Y628650D02*
X424180Y542290D01*
X496570Y414020D02*
X548640Y361950D01*
X496570Y414020D02*
Y425450D01*
X265830Y594360D02*
X300120Y628650D01*
X337820D01*
X265830Y519360D02*
X296380Y549910D01*
X320040D01*
X361950Y508000D01*
X482600Y364490D02*
Y368300D01*
X391160Y459740D02*
X482600Y368300D01*
X316230Y594360D02*
X391160Y519430D01*
Y459740D02*
Y519430D01*
X77470Y261620D02*
X238760D01*
X254000Y276860D01*
D62*
X139700Y627380D02*
X236220D01*
X265830Y597770D01*
X102870Y590550D02*
X139700Y627380D01*
X76200Y590550D02*
X102870D01*
X76200Y527050D02*
X138430D01*
X165100Y553720D01*
X233680D01*
X265830Y521570D01*
Y519360D02*
Y521570D01*
Y594360D02*
Y597770D01*
X35560Y398780D02*
X76200Y358140D01*
X35560Y398780D02*
Y546461D01*
X50439Y561340D01*
X124460D01*
X157480Y594360D01*
X215430D01*
X76200Y421640D02*
X78740D01*
X176460Y519360D01*
X215430D01*
D63*
X453390Y435610D02*
X453876Y435124D01*
Y431314D02*
X516890Y368300D01*
X453876Y431314D02*
Y435124D01*
X556260Y420370D02*
X569230D01*
X598440Y449580D01*
X560230Y609600D02*
Y610090D01*
X560760Y610620D01*
X561250D01*
X580550Y629920D01*
X796290D01*
X859790Y405130D02*
Y566420D01*
X796290Y629920D02*
X859790Y566420D01*
X670400Y346100D02*
X681913D01*
X682087Y345926D01*
X703094D01*
X703580Y345440D01*
X512998Y270002D02*
X524704Y258296D01*
X510540Y272460D02*
X512998Y270002D01*
X510540Y272460D02*
Y281460D01*
X524704Y258296D02*
X527834D01*
X528320Y257810D01*
X726440Y326390D02*
Y353060D01*
Y289560D02*
Y326390D01*
X323215Y452755D02*
Y474345D01*
X545900Y548640D02*
X578920Y581660D01*
X580390D01*
X592930Y594200D02*
Y609600D01*
X580390Y581660D02*
X592930Y594200D01*
X559700Y610620D02*
X560230Y610090D01*
X559210Y610620D02*
X559700D01*
X558960Y610870D02*
X559210Y610620D01*
X488273Y610870D02*
X558960D01*
X468830Y594360D02*
X471763D01*
X488273Y610870D01*
X338208Y396240D02*
X360680D01*
X322386Y396434D02*
Y435910D01*
X473440Y492760D02*
X520700D01*
X570720Y542780D01*
X431800Y452120D02*
X432800D01*
X473440Y492760D01*
X516307Y449580D02*
X548640D01*
X513767Y447040D02*
X516307Y449580D01*
X513080Y447040D02*
X513767D01*
X670400Y365100D02*
X714400D01*
X726440Y353060D01*
X749130Y282110D02*
X749300Y281940D01*
X733890Y282110D02*
X749130D01*
X726440Y289560D02*
X733890Y282110D01*
X749300Y405460D02*
X800100Y456260D01*
X749300Y300440D02*
Y405460D01*
X483600Y452120D02*
X506460Y474980D01*
X482600Y452120D02*
X483600D01*
X506460Y474980D02*
X718820D01*
X800100Y556260D01*
X228600Y160020D02*
X229870Y161290D01*
Y214920D01*
X297180Y127000D02*
X298000Y127820D01*
X327720D01*
D64*
X181320Y321020D02*
X229870D01*
X180340Y320040D02*
X181320Y321020D01*
X189230Y46990D02*
X255270Y113030D01*
Y214920D01*
X77470Y46990D02*
X189230D01*
X254000Y276860D02*
X255270Y278130D01*
Y321020D01*
D65*
X545900Y548640D02*
D03*
X570900D02*
D03*
X596900D02*
D03*
D66*
X77470Y46990D02*
D03*
X76200Y527050D02*
D03*
Y358140D02*
D03*
X77470Y198120D02*
D03*
D67*
Y110490D02*
D03*
X76200Y590550D02*
D03*
Y421640D02*
D03*
X77470Y261620D02*
D03*
D68*
X800100Y556260D02*
D03*
Y456260D02*
D03*
D69*
X886460Y281940D02*
D03*
Y307340D02*
D03*
X1094740Y397510D02*
D03*
X883920Y200660D02*
D03*
Y175260D02*
D03*
Y149860D02*
D03*
X1209040Y393700D02*
D03*
X1183640D02*
D03*
X1035050Y397510D02*
D03*
X1009650D02*
D03*
X984250D02*
D03*
X958850D02*
D03*
X1117600Y111760D02*
D03*
X1092200D02*
D03*
X1221740Y200660D02*
D03*
X1247140Y226060D02*
D03*
X1221740D02*
D03*
X1247140Y251460D02*
D03*
X1221740D02*
D03*
X1247140Y276860D02*
D03*
X1221740D02*
D03*
X1247140Y302260D02*
D03*
X1221740D02*
D03*
D70*
X886460Y332740D02*
D03*
X883920Y226060D02*
D03*
X1247140Y200660D02*
D03*
D71*
X1120140Y397510D02*
D03*
X1158240Y393700D02*
D03*
X1060450Y397510D02*
D03*
X1066800Y111760D02*
D03*
D72*
X215430Y594360D02*
D03*
Y519360D02*
D03*
X468830Y594360D02*
D03*
X316230D02*
D03*
X265830D02*
D03*
Y519360D02*
D03*
X316230D02*
D03*
X468830D02*
D03*
D73*
X1128522Y217424D02*
D03*
X594868Y79248D02*
D03*
X314452Y260096D02*
D03*
X400965Y255931D02*
D03*
X1120902Y202692D02*
D03*
X690626Y49530D02*
D03*
X588518Y289306D02*
D03*
X559308Y260350D02*
D03*
X986536Y556260D02*
D03*
X666242Y205994D02*
D03*
X683006Y210058D02*
D03*
X712724Y223012D02*
D03*
X649224Y167894D02*
D03*
X630174Y170434D02*
D03*
X994664Y239014D02*
D03*
X1000252Y248412D02*
D03*
X632460Y189230D02*
D03*
X576580Y223520D02*
D03*
X1029970Y325120D02*
D03*
X454660Y452120D02*
D03*
X556260Y420370D02*
D03*
X1098550Y321310D02*
D03*
X1090930Y281940D02*
D03*
X1162050Y454660D02*
D03*
X1179830Y447040D02*
D03*
X1115060Y533400D02*
D03*
X499110Y335280D02*
D03*
X715010Y326390D02*
D03*
X817880Y246380D02*
D03*
X590550Y414020D02*
D03*
X427990Y316230D02*
D03*
X590550Y143510D02*
D03*
X971550Y106680D02*
D03*
X981710Y504190D02*
D03*
X1042670Y320040D02*
D03*
X1064260Y287020D02*
D03*
X1054100Y279400D02*
D03*
X1042670Y340360D02*
D03*
X982980Y283210D02*
D03*
X985520Y316230D02*
D03*
X1008380Y304800D02*
D03*
X637540Y132080D02*
D03*
X698500Y167640D02*
D03*
Y116840D02*
D03*
X762000Y104140D02*
D03*
X952500Y182880D02*
D03*
X922020Y106680D02*
D03*
X373380Y154940D02*
D03*
Y198120D02*
D03*
X281940Y243840D02*
D03*
X353060Y274320D02*
D03*
X373380Y261620D02*
D03*
X345440Y292100D02*
D03*
X579120Y452120D02*
D03*
X952500Y200660D02*
D03*
X1130300Y177800D02*
D03*
X1056640D02*
D03*
X1130300Y195580D02*
D03*
X690880Y266700D02*
D03*
X498602Y255270D02*
D03*
X792988Y128270D02*
D03*
X1070356Y339598D02*
D03*
X1080262Y485902D02*
D03*
X1135380Y228600D02*
D03*
X1127760Y251460D02*
D03*
X1128776Y318717D02*
D03*
X1132840Y264160D02*
D03*
X860044Y274320D02*
D03*
X980440Y241300D02*
D03*
X1051560Y243840D02*
D03*
X1082040Y167640D02*
D03*
X988060Y139700D02*
D03*
X1076960Y251460D02*
D03*
X1023366Y427736D02*
D03*
X1001776Y439420D02*
D03*
D74*
X496570Y542290D02*
D03*
Y425450D02*
D03*
X453390Y435610D02*
D03*
X516890Y368300D02*
D03*
X859790Y405130D02*
D03*
X703580Y345440D02*
D03*
X528320Y257810D02*
D03*
X360680Y396240D02*
D03*
X323850Y474980D02*
D03*
X513080Y447040D02*
D03*
X297180Y127000D02*
D03*
X228600Y160020D02*
D03*
X180340Y320040D02*
D03*
D75*
X876300Y30480D02*
D03*
M02*
