M48
;Layer_Color=9474304
;FILE_FORMAT=4:4
METRIC,LZ
;TYPE=PLATED
T1F00S00C0.3556
T2F00S00C0.7620
T3F00S00C0.9000
T4F00S00C1.0000
%
T01
X00959866Y00747776
X01002284Y0080518
X0100965Y0083947
X0098425Y008509
X01128268Y00834898
X01099185Y00989711
X01346454Y00853186
X0137541Y0079883
T02
X00911352Y01014984
X00936752
X00962152
X00987552
X01012952
X01073658
X01099058
X01124458
X01149858
X01175258
Y01167384
X01149858
X01124458
X01099058
X01073658
X01012952
X00987552
X00962152
X00936752
X00911352
X01236218
X01261618
X01287018
X01312418
X01337818
X01398524
X01423924
X01449324
X01474724
X01500124
Y01014984
X01474724
X01449324
X01423924
X01398524
X01337818
X01312418
X01287018
X01261618
X01236218
T03
X0085471Y0078867
X0088011
Y0081407
X0085471
Y0083947
X0088011
Y0086487
X0085471
Y0089027
X0088011
T04
X0121071Y0072764
X0123571
X0126071
Y0087264
X0121071
M30
