G04*
G04 #@! TF.GenerationSoftware,Altium Limited,Altium Designer,23.4.1 (23)*
G04*
G04 Layer_Color=65535*
%FSLAX44Y44*%
%MOMM*%
G71*
G04*
G04 #@! TF.SameCoordinates,F24B36E9-0D30-401B-9849-1351ABCE0AFF*
G04*
G04*
G04 #@! TF.FilePolarity,Positive*
G04*
G01*
G75*
%ADD10C,0.2500*%
%ADD11C,0.6000*%
%ADD12C,0.2540*%
%ADD13C,0.2000*%
%ADD14C,0.2032*%
D10*
X1095600Y893500D02*
G03*
X1095600Y893500I-1250J0D01*
G01*
X1211960Y885890D02*
G03*
X1211960Y885890I-1250J0D01*
G01*
D11*
X1086200Y871250D02*
G03*
X1086200Y871250I-3000J0D01*
G01*
D12*
X1487424Y1002284D02*
X1512824D01*
Y1180084D01*
X1487424D02*
X1512824D01*
X1385824Y1002284D02*
Y1167384D01*
Y1002284D02*
X1487424D01*
X1385824Y1180084D02*
X1487424D01*
X1385824Y1167384D02*
Y1180084D01*
X1325118Y1002284D02*
X1350518D01*
Y1180084D01*
X1325118D02*
X1350518D01*
X1223518Y1002284D02*
Y1167384D01*
Y1002284D02*
X1325118D01*
X1223518Y1180084D02*
X1325118D01*
X1223518Y1167384D02*
Y1180084D01*
X1162558Y1002284D02*
X1187958D01*
Y1180084D01*
X1162558D02*
X1187958D01*
X1060958Y1002284D02*
Y1167384D01*
Y1002284D02*
X1162558D01*
X1060958Y1180084D02*
X1162558D01*
X1060958Y1167384D02*
Y1180084D01*
X1000252Y1002284D02*
X1025652D01*
Y1180084D01*
X1000252D02*
X1025652D01*
X898652Y1002284D02*
Y1167384D01*
Y1002284D02*
X1000252D01*
X898652Y1180084D02*
X1000252D01*
X898652Y1167384D02*
Y1180084D01*
X981600Y705440D02*
X1001830Y685210D01*
X981600Y705440D02*
Y727710D01*
Y749890D01*
X1001920Y770210D01*
X1066600D01*
Y685300D02*
Y770210D01*
X1001830Y685210D02*
X1066690D01*
X1341120Y750565D02*
X1351277D01*
X1346198D01*
Y735330D01*
X1356355Y750565D02*
Y735330D01*
Y742947D01*
X1358894Y745487D01*
X1363973D01*
X1366512Y742947D01*
Y735330D01*
X1374129D02*
X1379208D01*
X1381747Y737869D01*
Y742947D01*
X1379208Y745487D01*
X1374129D01*
X1371590Y742947D01*
Y737869D01*
X1374129Y735330D01*
X1386825D02*
Y745487D01*
X1389364D01*
X1391904Y742947D01*
Y735330D01*
Y742947D01*
X1394443Y745487D01*
X1396982Y742947D01*
Y735330D01*
X1404599Y745487D02*
X1409678D01*
X1412217Y742947D01*
Y735330D01*
X1404599D01*
X1402060Y737869D01*
X1404599Y740408D01*
X1412217D01*
X1417295Y735330D02*
X1424913D01*
X1427452Y737869D01*
X1424913Y740408D01*
X1419834D01*
X1417295Y742947D01*
X1419834Y745487D01*
X1427452D01*
X1457922Y750565D02*
X1447766D01*
Y742947D01*
X1452844D01*
X1447766D01*
Y735330D01*
X1465540D02*
X1470618D01*
X1473157Y737869D01*
Y742947D01*
X1470618Y745487D01*
X1465540D01*
X1463001Y742947D01*
Y737869D01*
X1465540Y735330D01*
X1478236D02*
Y750565D01*
Y740408D02*
X1485853Y745487D01*
X1478236Y740408D02*
X1485853Y735330D01*
X1493471D02*
Y750565D01*
Y740408D02*
X1501088Y745487D01*
X1493471Y740408D02*
X1501088Y735330D01*
X1516323D02*
X1511245D01*
X1508706Y737869D01*
Y742947D01*
X1511245Y745487D01*
X1516323D01*
X1518862Y742947D01*
Y740408D01*
X1508706D01*
X1523941Y735330D02*
Y745487D01*
X1526480D01*
X1529019Y742947D01*
Y735330D01*
Y742947D01*
X1531558Y745487D01*
X1534098Y742947D01*
Y735330D01*
X1541715Y745487D02*
X1546794D01*
X1549333Y742947D01*
Y735330D01*
X1541715D01*
X1539176Y737869D01*
X1541715Y740408D01*
X1549333D01*
X1374391Y1163574D02*
Y1178809D01*
X1366774Y1171191D01*
X1376931D01*
X1204468Y1176270D02*
X1207007Y1178809D01*
X1212085D01*
X1214625Y1176270D01*
Y1173731D01*
X1212085Y1171191D01*
X1209546D01*
X1212085D01*
X1214625Y1168652D01*
Y1166113D01*
X1212085Y1163574D01*
X1207007D01*
X1204468Y1166113D01*
X1052065Y1163574D02*
X1041908D01*
X1052065Y1173731D01*
Y1176270D01*
X1049526Y1178809D01*
X1044447D01*
X1041908Y1176270D01*
X884682Y1163574D02*
X889760D01*
X887221D01*
Y1178809D01*
X884682Y1176270D01*
X1451356Y895350D02*
Y910585D01*
X1458974D01*
X1461513Y908046D01*
Y902968D01*
X1458974Y900428D01*
X1451356D01*
X1456434D02*
X1461513Y895350D01*
X1466591Y908046D02*
X1469130Y910585D01*
X1474209D01*
X1476748Y908046D01*
Y905507D01*
X1474209Y902968D01*
X1471669D01*
X1474209D01*
X1476748Y900428D01*
Y897889D01*
X1474209Y895350D01*
X1469130D01*
X1466591Y897889D01*
X1481826Y908046D02*
X1484365Y910585D01*
X1489444D01*
X1491983Y908046D01*
Y905507D01*
X1489444Y902968D01*
X1486904D01*
X1489444D01*
X1491983Y900428D01*
Y897889D01*
X1489444Y895350D01*
X1484365D01*
X1481826Y897889D01*
X1453134Y828040D02*
Y843275D01*
X1460751D01*
X1463291Y840736D01*
Y835658D01*
X1460751Y833118D01*
X1453134D01*
X1458212D02*
X1463291Y828040D01*
X1468369Y840736D02*
X1470908Y843275D01*
X1475987D01*
X1478526Y840736D01*
Y838197D01*
X1475987Y835658D01*
X1473447D01*
X1475987D01*
X1478526Y833118D01*
Y830579D01*
X1475987Y828040D01*
X1470908D01*
X1468369Y830579D01*
X1493761Y828040D02*
X1483604D01*
X1493761Y838197D01*
Y840736D01*
X1491222Y843275D01*
X1486143D01*
X1483604Y840736D01*
X1391666Y825500D02*
Y840735D01*
X1399283D01*
X1401823Y838196D01*
Y833118D01*
X1399283Y830578D01*
X1391666D01*
X1396744D02*
X1401823Y825500D01*
X1406901Y838196D02*
X1409440Y840735D01*
X1414519D01*
X1417058Y838196D01*
Y835657D01*
X1414519Y833118D01*
X1411979D01*
X1414519D01*
X1417058Y830578D01*
Y828039D01*
X1414519Y825500D01*
X1409440D01*
X1406901Y828039D01*
X1422136Y825500D02*
X1427215D01*
X1424675D01*
Y840735D01*
X1422136Y838196D01*
X843534Y949447D02*
Y934212D01*
Y939290D01*
X853691Y949447D01*
X846073Y941830D01*
X853691Y934212D01*
X858769D02*
X863847D01*
X861308D01*
Y949447D01*
X858769Y946908D01*
X871465Y934212D02*
X876543D01*
X874004D01*
Y949447D01*
X871465Y946908D01*
X963930Y927349D02*
X969008D01*
X966469D01*
Y912114D01*
X963930D01*
X969008D01*
X986783Y924810D02*
X984243Y927349D01*
X979165D01*
X976626Y924810D01*
Y914653D01*
X979165Y912114D01*
X984243D01*
X986783Y914653D01*
X991861Y912114D02*
X996939D01*
X994400D01*
Y927349D01*
X991861Y924810D01*
X1177287Y911347D02*
X1167130D01*
Y896112D01*
X1177287D01*
X1167130Y903729D02*
X1172208D01*
X1182365Y896112D02*
Y911347D01*
X1192522Y896112D01*
Y911347D01*
X1207757Y908808D02*
X1205218Y911347D01*
X1200139D01*
X1197600Y908808D01*
Y898651D01*
X1200139Y896112D01*
X1205218D01*
X1207757Y898651D01*
X1212835Y896112D02*
X1217914D01*
X1215374D01*
Y911347D01*
X1212835Y908808D01*
X1225531Y911347D02*
Y896112D01*
X1233149D01*
X1235688Y898651D01*
Y901190D01*
X1233149Y903729D01*
X1225531D01*
X1233149D01*
X1235688Y906269D01*
Y908808D01*
X1233149Y911347D01*
X1225531D01*
X1340355Y842768D02*
X1337816Y845307D01*
X1332737D01*
X1330198Y842768D01*
Y832611D01*
X1332737Y830072D01*
X1337816D01*
X1340355Y832611D01*
X1345433Y842768D02*
X1347972Y845307D01*
X1353051D01*
X1355590Y842768D01*
Y840229D01*
X1353051Y837690D01*
X1350511D01*
X1353051D01*
X1355590Y835150D01*
Y832611D01*
X1353051Y830072D01*
X1347972D01*
X1345433Y832611D01*
X1370825Y845307D02*
X1360668D01*
Y837690D01*
X1365746Y840229D01*
X1368286D01*
X1370825Y837690D01*
Y832611D01*
X1368286Y830072D01*
X1363207D01*
X1360668Y832611D01*
X1399283Y910078D02*
X1396743Y912617D01*
X1391665D01*
X1389126Y910078D01*
Y899921D01*
X1391665Y897382D01*
X1396743D01*
X1399283Y899921D01*
X1404361Y910078D02*
X1406900Y912617D01*
X1411979D01*
X1414518Y910078D01*
Y907539D01*
X1411979Y904999D01*
X1409439D01*
X1411979D01*
X1414518Y902460D01*
Y899921D01*
X1411979Y897382D01*
X1406900D01*
X1404361Y899921D01*
X1427214Y897382D02*
Y912617D01*
X1419596Y904999D01*
X1429753D01*
X1340863Y910078D02*
X1338324Y912617D01*
X1333245D01*
X1330706Y910078D01*
Y899921D01*
X1333245Y897382D01*
X1338324D01*
X1340863Y899921D01*
X1345941Y910078D02*
X1348480Y912617D01*
X1353559D01*
X1356098Y910078D01*
Y907539D01*
X1353559Y904999D01*
X1351019D01*
X1353559D01*
X1356098Y902460D01*
Y899921D01*
X1353559Y897382D01*
X1348480D01*
X1345941Y899921D01*
X1361176Y910078D02*
X1363715Y912617D01*
X1368794D01*
X1371333Y910078D01*
Y907539D01*
X1368794Y904999D01*
X1366254D01*
X1368794D01*
X1371333Y902460D01*
Y899921D01*
X1368794Y897382D01*
X1363715D01*
X1361176Y899921D01*
X1519933Y907538D02*
X1517393Y910077D01*
X1512315D01*
X1509776Y907538D01*
Y897381D01*
X1512315Y894842D01*
X1517393D01*
X1519933Y897381D01*
X1525011Y907538D02*
X1527550Y910077D01*
X1532629D01*
X1535168Y907538D01*
Y904999D01*
X1532629Y902459D01*
X1530089D01*
X1532629D01*
X1535168Y899920D01*
Y897381D01*
X1532629Y894842D01*
X1527550D01*
X1525011Y897381D01*
X1550403Y894842D02*
X1540246D01*
X1550403Y904999D01*
Y907538D01*
X1547864Y910077D01*
X1542785D01*
X1540246Y907538D01*
X991359Y791714D02*
X988820Y794253D01*
X983741D01*
X981202Y791714D01*
Y781557D01*
X983741Y779018D01*
X988820D01*
X991359Y781557D01*
X996437Y791714D02*
X998976Y794253D01*
X1004055D01*
X1006594Y791714D01*
Y789175D01*
X1004055Y786636D01*
X1001515D01*
X1004055D01*
X1006594Y784096D01*
Y781557D01*
X1004055Y779018D01*
X998976D01*
X996437Y781557D01*
X1011672Y779018D02*
X1016750D01*
X1014211D01*
Y794253D01*
X1011672Y791714D01*
D13*
X1510739Y886311D02*
X1539801D01*
X1510739Y863749D02*
X1539801D01*
X1464940Y883820D02*
X1466940D01*
X1464940Y871320D02*
X1466940D01*
X1466760Y804010D02*
X1468760D01*
X1466760Y816510D02*
X1468760D01*
X1405250Y801470D02*
X1407250D01*
X1405250Y813970D02*
X1407250D01*
X1331282Y798979D02*
X1360343D01*
X1331282Y821541D02*
X1360343D01*
X1390089Y866289D02*
X1419151D01*
X1390089Y888851D02*
X1419151D01*
X1331669Y866289D02*
X1360731D01*
X1331669Y888851D02*
X1360731D01*
X964200Y881250D02*
X1093200D01*
X964200Y833250D02*
X1093200D01*
Y881250D01*
X964200Y833250D02*
Y881250D01*
X842010Y902970D02*
X892810D01*
X842010Y775970D02*
X892810D01*
X842010D02*
Y902970D01*
X892810Y775970D02*
Y902970D01*
X1170710Y831390D02*
Y872140D01*
Y733140D02*
Y773890D01*
X1272210Y733140D02*
X1300710D01*
X1247210D02*
X1249210D01*
X1222210D02*
X1224210D01*
X1170710D02*
X1199210D01*
X1300710Y831390D02*
Y872140D01*
Y733140D02*
Y773890D01*
X1272210Y872140D02*
X1300710D01*
X1222210D02*
X1249210D01*
X1170710D02*
X1199210D01*
D14*
X859790Y769956D02*
Y761492D01*
X851326Y769956D01*
X849210D01*
X847094Y767840D01*
Y763608D01*
X849210Y761492D01*
X885190Y767080D02*
Y771312D01*
Y769196D01*
X872494D01*
X874610Y767080D01*
X883074Y908050D02*
X885190Y910166D01*
Y914398D01*
X883074Y916514D01*
X874610D01*
X872494Y914398D01*
Y910166D01*
X874610Y908050D01*
X876726D01*
X878842Y910166D01*
Y916514D01*
X859790Y908304D02*
Y912536D01*
Y910420D01*
X847094D01*
X849210Y908304D01*
Y918884D02*
X847094Y921000D01*
Y925232D01*
X849210Y927348D01*
X857674D01*
X859790Y925232D01*
Y921000D01*
X857674Y918884D01*
X849210D01*
M02*
